<svg width="279" height="58" viewBox="0 0 279 58" fill="none" xmlns="http://www.w3.org/2000/svg">
<rect x="11.9307" y="6.55444" width="254.139" height="46.4554" fill="#F2E95B"/>
<path d="M5.81322 4.46146L2.95004 5.20141L2.75982 11.2401L3.61696 17.8374L2.28282 26.3833L3.06972 35.2102L2.72733 46.0799L2.04124 50.9566L1.35515 55.8334L11.2943 55.8449L12.7932 53.3381L11.6162 45.6256L13.3639 35.2221L12.222 26.3947L13.9111 17.8493L12.699 11.2515L14.3325 4.47128L9.36293 4.46555L5.81322 4.46146Z" fill="#498C00" stroke="black" stroke-width="2"/>
<path d="M3.10279 45.4299L7.36537 45.3419L11.6162 45.6256" stroke="black"/>
<path d="M3.07849 34.9315L13.3727 34.9434" stroke="black"/>
<path d="M2.40778 11.1468L12.6209 11.1586" stroke="black"/>
<path d="M3.61694 17.8374L13.7363 17.8491" stroke="black"/>
<path d="M2.27985 26.4761L12.2249 26.3018" stroke="black"/>
<path d="M1.79498 53.1396L12.7932 53.3381" stroke="black"/>
<path d="M268.482 4.64768L265.62 5.38763L265.43 11.4263L266.286 18.0236L264.953 26.5695L265.739 35.3965L265.397 46.2661L264.711 51.1429L264.025 56.0196L273.962 56.0311L275.461 53.5244L274.284 45.8118L276.031 35.4083L274.89 26.5809L276.579 18.0355L275.367 11.4378L277 4.65749L272.031 4.65177L268.482 4.64768Z" fill="#498C00" stroke="black" stroke-width="2"/>
<path d="M265.772 45.6162L270.034 45.5282L274.284 45.8118" stroke="black"/>
<path d="M265.748 35.1177L276.04 35.1296" stroke="black"/>
<path d="M265.078 11.333L275.289 11.3448" stroke="black"/>
<path d="M266.286 18.0236L276.404 18.0353" stroke="black"/>
<path d="M264.95 26.6624L274.893 26.488" stroke="black"/>
<path d="M264.465 53.3259L275.461 53.5243" stroke="black"/>
<path d="M1 54.1692L4.99277 56.3774H37.434L72.8698 55.5494L118.787 56.3774L166.201 55.5494H224.595L250.797 55.9634L277 56.3774V48.6487L263.524 47.5446L222.099 48.6487L166.201 47.5446L118.787 48.6487L72.8698 47.5446L37.434 48.6487L1 47.5446V51.4089V54.1692Z" fill="#498C00" stroke="black" stroke-width="2"/>
<path d="M221.101 55.2733L220.602 51.961L222.099 48.6487" stroke="black"/>
<path d="M164.703 55.5493V47.5445" stroke="black"/>
<path d="M36.9349 56.6534V48.7117" stroke="black"/>
<path d="M72.8698 55.5493V47.6805" stroke="black"/>
<path d="M119.286 56.3774L118.287 48.6487" stroke="black"/>
<path d="M262.526 56.1014L263.524 47.5445" stroke="black"/>
<path d="M1 8.62467L4.98844 10.8329H37.3945L72.7919 10.0048L118.659 10.8329L166.022 10.0048H224.352L250.527 10.4188L276.701 10.8329V3.10411L263.24 2L221.86 3.10411L166.022 2L118.659 3.10411L72.7919 2L37.3945 3.10411L1 2V5.86439V8.62467Z" fill="#498C00" stroke="black" stroke-width="2"/>
<path d="M220.863 9.72876L220.364 6.41643L221.86 3.1041" stroke="black"/>
<path d="M164.526 10.0048V1.99996" stroke="black"/>
<path d="M36.8959 11.1089V3.16713" stroke="black"/>
<path d="M72.7919 10.0048V2.13592" stroke="black"/>
<path d="M119.158 10.8329L118.16 3.10411" stroke="black"/>
<path d="M262.243 10.5568L263.24 1.99997" stroke="black"/>
</svg>
