<svg width="614" height="635" viewBox="0 0 614 635" fill="none" xmlns="http://www.w3.org/2000/svg">
<rect x="19" y="13" width="580" height="610" fill="#F2E95B"/>
<path d="M15.0259 13.0624L5.76098 21.8024L5.33049 93.2659L8.31474 171.347L4.25095 272.474L7.07625 376.942L6.30137 505.576L4.22642 563.286L2.15147 620.996L34.3933 621.19L39.1781 591.533L35.1218 500.252L40.4696 377.143L36.4928 272.668L41.7081 171.548L37.5723 93.4601L42.6618 13.2289L26.5409 13.1318L15.0259 13.0624Z" fill="#498C00" stroke="black" stroke-width="2"/>
<path d="M7.49924 497.887L21.3238 496.87L35.1219 500.252" stroke="black"/>
<path d="M7.09607 373.643L40.4894 373.844" stroke="black"/>
<path d="M4.18567 92.1595L37.316 92.3591" stroke="black"/>
<path d="M8.3147 171.347L41.1409 171.544" stroke="black"/>
<path d="M4.24432 273.574L36.4994 271.569" stroke="black"/>
<path d="M3.495 589.119L39.1781 591.533" stroke="black"/>
<path d="M585.026 15.0624L575.761 23.8024L575.331 95.2659L578.315 173.347L574.251 274.474L577.076 378.942L576.302 507.576L574.227 565.286L572.152 622.996L604.394 623.19L609.178 593.533L605.122 502.252L610.47 379.143L606.493 274.668L611.708 173.548L607.573 95.4601L612.662 15.2289L596.541 15.1318L585.026 15.0624Z" fill="#498C00" stroke="black" stroke-width="2"/>
<path d="M577.499 499.887L591.324 498.87L605.122 502.252" stroke="black"/>
<path d="M577.096 375.643L610.49 375.844" stroke="black"/>
<path d="M574.186 94.1595L607.316 94.3591" stroke="black"/>
<path d="M578.315 173.347L611.141 173.544" stroke="black"/>
<path d="M574.245 275.574L606.5 273.569" stroke="black"/>
<path d="M573.495 591.119L609.178 593.533" stroke="black"/>
<path d="M1 624.636L9.79566 633.848H81.2604L159.322 630.394L260.472 633.848L364.92 630.394H493.557L551.279 632.121L609 633.848V601.606L579.315 597L488.06 601.606L364.92 597L260.472 601.606L159.322 597L81.2604 601.606L1 597V613.121V624.636Z" fill="#498C00" stroke="black" stroke-width="2"/>
<path d="M485.861 629.242L484.761 615.424L488.06 601.606" stroke="black"/>
<path d="M361.622 630.394V597" stroke="black"/>
<path d="M80.1609 635V601.869" stroke="black"/>
<path d="M159.322 630.394V597.567" stroke="black"/>
<path d="M261.571 633.848L259.373 601.606" stroke="black"/>
<path d="M577.116 632.697L579.315 597" stroke="black"/>
<path d="M1 29.6364L9.79566 38.8485H81.2604L159.322 35.3939L260.472 38.8485L364.92 35.3939H493.557L551.279 37.1212L609 38.8485V6.60606L579.315 2L488.06 6.60606L364.92 2L260.472 6.60606L159.322 2L81.2604 6.60606L1 2V18.1212V29.6364Z" fill="#498C00" stroke="black" stroke-width="2"/>
<path d="M485.861 34.2424L484.761 20.4243L488.06 6.60607" stroke="black"/>
<path d="M361.622 35.394V2.00001" stroke="black"/>
<path d="M80.1609 40V6.86906" stroke="black"/>
<path d="M159.322 35.394V2.5672" stroke="black"/>
<path d="M261.571 38.8485L259.373 6.60606" stroke="black"/>
<path d="M577.116 37.697L579.315 1.99999" stroke="black"/>
</svg>
