<svg width="262" height="387" viewBox="0 0 262 387" fill="none" xmlns="http://www.w3.org/2000/svg">
<path d="M123.134 158.591L89.6003 158.513L87.761 160.775L89.5941 164.366L96.557 164.501L116.298 199.892L121.757 209.082L124.019 210.922L123.82 197.166L122.879 197.507L119.119 198.87L100.359 164.719L122.957 163.973L123.134 158.591Z" fill="#498C00" stroke="black"/>
<path d="M120.976 57.2621L119.485 12.065L120.514 9.03309L125.173 5.7487L135.427 4.69149L141.961 6.57792L141.573 9.90951L140.196 60.4006L141.274 132.339L143.08 201.885L142.929 207.338L140.55 293.214L139.177 380.399C130.31 381.517 126.06 381.14 119.528 379.012L120.378 302.12L121.071 292.296L124.177 223.096L123.943 206.162L123.82 197.166L122.007 133.472L120.976 57.2621Z" fill="#95D92B"/>
<path d="M119.485 12.065L120.976 57.2621M119.485 12.065L120.514 9.03309L125.173 5.7487L135.427 4.69149L141.961 6.57792L141.573 9.90951M119.485 12.065L123.158 13.3931L130.761 13.8282L141.573 9.90951M120.976 57.2621L122.007 133.472M120.976 57.2621L124.989 59.5303L130.072 60.3473C132.107 60.4697 134.813 60.2241 134.813 60.2241L140.196 60.4006M122.007 133.472L123.82 197.166L123.943 206.162M122.007 133.472C125.222 134.524 127.029 135.102 130.591 135.147C135.568 134.511 137.965 133.929 141.274 132.339M121.071 292.296L124.177 223.096L123.943 206.162M121.071 292.296L120.378 302.12L119.528 379.012C126.06 381.14 130.31 381.517 139.177 380.399L140.55 293.214M121.071 292.296C124.258 293.363 126.294 293.787 130.296 294.271C132.534 294.342 134.028 294.34 138.199 294.065L140.55 293.214M140.55 293.214L142.929 207.338M141.274 132.339L143.08 201.885L142.929 207.338M141.274 132.339L140.196 60.4006M140.196 60.4006L141.573 9.90951M123.943 206.162C127.138 207.322 129.031 207.612 132.48 207.855C137.16 208.125 139.296 207.892 142.929 207.338" stroke="#214000"/>
<path d="M85.7471 125.873L81.0893 86.6102L85.1907 86.1874L93.2641 86.4521L94.7154 87.5216L94.5554 117.894L101.229 149.512L110.243 149.436C112.493 151.215 113.617 152.223 115.108 154.055L110.918 157.169L99.0428 156.686L93.4491 154.459L89.7357 151.551L85.7471 125.873Z" fill="#FF9C67"/>
<path d="M115.707 152.774C115.741 152.861 114.156 151.482 113.274 150.465L118.228 152.392L119.209 153.632L120.701 156.282L119.291 156.793L118.051 157.774L115.36 157.686L113.609 157.257L112.969 156.957L116.218 154.184L117.499 154.783L117.158 153.843C117.158 153.843 115.672 152.687 115.707 152.774Z" fill="#FF9C67"/>
<path d="M85.7471 125.873L81.0893 86.6102L85.1907 86.1874L93.2641 86.4521L94.7154 87.5216L94.5554 117.894L101.229 149.512L110.243 149.436C112.493 151.215 113.617 152.223 115.108 154.055L110.918 157.169L99.0428 156.686L93.4491 154.459L89.7357 151.551L85.7471 125.873Z" stroke="black"/>
<path d="M115.707 152.774C115.741 152.861 114.156 151.482 113.274 150.465L118.228 152.392L119.209 153.632L120.701 156.282L119.291 156.793L118.051 157.774L115.36 157.686L113.609 157.257L112.969 156.957L116.218 154.184L117.499 154.783L117.158 153.843C117.158 153.843 115.672 152.687 115.707 152.774Z" stroke="black"/>
<path d="M69.7622 52.4241L69.7334 39.1388L67.6888 33.4979L78.0305 29.7495L84.1825 29.1152L110.412 28.1175L105.287 68.2669L101.208 87.8274L94.6743 85.941L86.6009 85.6762L79.6791 87.1214L69.7622 52.4241Z" fill="#A59A00" stroke="black"/>
<path d="M92.7205 156.851L92.6383 153.689L98.1027 157.027L111.858 156.828L116.048 153.714L110.243 149.436L117.128 150.742L121.641 155.941L119.032 159.014L98.3142 159.078L92.7205 156.851Z" fill="black"/>
<path d="M117.076 150.682L117.128 150.742M116.688 154.014L116.645 154.048M117.128 150.742L121.641 155.941L119.032 159.014L98.3142 159.078L92.7205 156.851L92.6383 153.689L98.1027 157.027L111.858 156.828L116.048 153.714L110.243 149.436L117.128 150.742Z" stroke="black"/>
</svg>
