<svg width="82" height="59" viewBox="0 0 82 59" fill="none" xmlns="http://www.w3.org/2000/svg">
<rect x="6.71844" y="6.66669" width="66.3338" height="47.4444" fill="#F2E95B"/>
<path d="M3.5436 4.51026L1.6877 5.25919L1.63325 11.4058L2.26723 18.1226L1.49672 26.8195L2.11059 35.8058L2.01259 46.8697L1.62189 51.8328L1.23119 56.7959L7.70339 56.8224L8.6506 54.273L7.79553 46.4205L8.81394 35.8333L7.96892 26.846L8.97058 18.15L8.10545 11.4323L9.0912 4.53299L5.8551 4.51973L3.5436 4.51026Z" fill="#498C00" stroke="black" stroke-width="2"/>
<path d="M2.24959 46.2086L5.02423 46.1254L7.79552 46.4205" stroke="black"/>
<path d="M2.1131 35.5221L8.81645 35.5496" stroke="black"/>
<path d="M1.40295 11.3102L8.05351 11.3375" stroke="black"/>
<path d="M2.26721 18.1226L8.85671 18.1496" stroke="black"/>
<path d="M1.49588 26.914L7.96976 26.7514" stroke="black"/>
<path d="M1.48663 54.0545L8.65061 54.273" stroke="black"/>
<path d="M74.4522 4.68226L72.5962 5.43119L72.5418 11.5778L73.1758 18.2946L72.4052 26.9915L73.0191 35.9778L72.9211 47.0417L72.5304 52.0048L72.1397 56.9679L78.6121 56.9944L79.5594 54.445L78.7043 46.5925L79.7227 36.0053L78.8777 27.018L79.8794 18.322L79.0142 11.6043L80 4.70499L76.7638 4.69173L74.4522 4.68226Z" fill="#498C00" stroke="black" stroke-width="2"/>
<path d="M73.1582 46.3806L75.9329 46.2974L78.7043 46.5925" stroke="black"/>
<path d="M73.0217 35.6941L79.7253 35.7216" stroke="black"/>
<path d="M72.3115 11.4822L78.9623 11.5095" stroke="black"/>
<path d="M73.1758 18.2946L79.7655 18.3216" stroke="black"/>
<path d="M72.4044 27.086L78.8785 26.9234" stroke="black"/>
<path d="M72.3951 54.2265L79.5594 54.445" stroke="black"/>
<path d="M1 56.5152L2.14162 57.835H11.4173L21.5491 57.3401L34.6777 57.835L48.2345 57.3401H64.9306L72.4225 57.5875L79.9144 57.835V53.2155L76.0614 52.5556L64.2171 53.2155L48.2345 52.5556L34.6777 53.2155L21.5491 52.5556L11.4173 53.2155L1 52.5556V54.8653V56.5152Z" fill="#498C00" stroke="black" stroke-width="2"/>
<path d="M63.9317 57.1751L63.789 55.1953L64.2171 53.2155" stroke="black"/>
<path d="M47.8063 57.3401V52.5556" stroke="black"/>
<path d="M11.2745 58V53.2532" stroke="black"/>
<path d="M21.5491 57.3401V52.6368" stroke="black"/>
<path d="M34.8204 57.835L34.535 53.2155" stroke="black"/>
<path d="M75.776 57.67L76.0614 52.5556" stroke="black"/>
<path d="M1 5.95961L2.14162 7.27948H11.4173L21.5491 6.78453L34.6777 7.27948L48.2345 6.78453H64.9306L72.4225 7.03201L79.9144 7.27948V2.65995L76.0614 2.00002L64.2171 2.65995L48.2345 2.00002L34.6777 2.65995L21.5491 2.00002L11.4173 2.65995L1 2.00002V4.30978V5.95961Z" fill="#498C00" stroke="black" stroke-width="2"/>
<path d="M63.9317 6.61957L63.789 4.63977L64.2171 2.65997" stroke="black"/>
<path d="M47.8063 6.78455V2.00003" stroke="black"/>
<path d="M11.2745 7.44446V2.69763" stroke="black"/>
<path d="M21.5491 6.78455V2.0813" stroke="black"/>
<path d="M34.8204 7.27948L34.535 2.65995" stroke="black"/>
<path d="M75.776 7.1145L76.0614 2.00002" stroke="black"/>
</svg>
