<svg width="158" height="125" viewBox="0 0 158 125" fill="none" xmlns="http://www.w3.org/2000/svg">
<g filter="url(#filter0_d_52_274)">
<path d="M26 31.5L36 20.5L38.5 31.5L49.5 34.5L70 28L65.8649 45L91 41L99 40L103.5 40.5L109 42L113.5 45L123 39L126.5 36L128 30.5L127.5 23L126.5 16.5L128 11L131 6.5L137 2.5L141 1.5L144.5 3L146.5 5L146 7.5L140.5 11.5L137 14.5L135.5 19V24.5V31L135 36L133 41L125.5 48L119 51.5L122 57.5L124.5 64.5L125 70L134 74.5L142 75.5L148 81.5L150 82L151.5 84.5L153 85L152.5 87.5L151.5 88.5L152.5 90L152 91.5L152.5 93L149.5 95.5L144 96L137.5 93.5L133 91L128 91.5L117 90L107.5 87L88 88.5L76.5 87L67.5 85.5L43 113.5L39.5 115.5L36 113.5L34.5 112L30.25 111L28 109.5L31.5 106H34.5L47 87L13 93L11 91L7 89.5V85.5H5.5L7 82H13L30.25 73.5L16 68.5L13 49L26 31.5Z" fill="#FF7126"/>
<path d="M30.25 73.5L16 68.5L13 49L26 31.5L36 20.5L38.5 31.5L49.5 34.5L70 28L65.8649 45M30.25 73.5L44.5 78.5L55 72.5L64 61.5L65.5 46.5L65.8649 45M30.25 73.5L13 82H7L5.5 85.5H7V89.5L11 91L13 93L47 87L34.5 106H31.5L28 109.5L30.25 111L34.5 112L36 113.5L39.5 115.5L43 113.5L67.5 85.5L76.5 87L88 88.5L107.5 87L117 90L128 91.5L133 91L137.5 93.5L144 96L149.5 95.5L152.5 93L152 91.5L152.5 90L151.5 88.5L152.5 87.5L153 85L151.5 84.5L150 82L148 81.5L142 75.5L134 74.5L125 70L124.5 64.5L122 57.5L119 51.5L125.5 48L133 41L135 36L135.5 31V24.5V19L137 14.5L140.5 11.5L146 7.5L146.5 5L144.5 3L141 1.5L137 2.5L131 6.5L128 11L126.5 16.5L127.5 23L128 30.5L126.5 36L123 39L113.5 45L109 42L103.5 40.5L99 40L91 41L65.8649 45" stroke="black"/>
<path d="M29 49L28 48H27L26 48.5L25.5 49.5V51L26.5 52H27.5L29 51.5L29.5 50.5L29 49Z" fill="black"/>
<path d="M43 51.5H41.5L40 52.5L39.5 54L40.5 55.5H42H43L43.5 54.5L44 54L43.5 52.5L43 51.5Z" fill="black"/>
<path d="M31 43L33 47.5M28 48L29 49L29.5 50.5L29 51.5L27.5 52H26.5L25.5 51V49.5L26 48.5L27 48H28ZM41.5 51.5H43L43.5 52.5L44 54L43.5 54.5L43 55.5H42H40.5L39.5 54L40 52.5L41.5 51.5Z" stroke="black"/>
<path d="M38 49L43.5 46.5" stroke="black"/>
<path d="M10.5 57H14L15 63L12.5 64" stroke="black"/>
<path d="M47 70.5L53 78" stroke="black"/>
<path d="M49 66.5L59 72" stroke="black"/>
<path d="M83 28L122 28.5" stroke="#AEAEB2"/>
<path d="M78 35.5H105.5" stroke="#AEAEB2"/>
<path d="M76.5 95H114.5" stroke="#AEAEB2"/>
<path d="M83 102H112.5" stroke="#AEAEB2"/>
</g>
<defs>
<filter id="filter0_d_52_274" x="0.74173" y="0.974121" width="156.835" height="123.102" filterUnits="userSpaceOnUse" color-interpolation-filters="sRGB">
<feFlood flood-opacity="0" result="BackgroundImageFix"/>
<feColorMatrix in="SourceAlpha" type="matrix" values="0 0 0 0 0 0 0 0 0 0 0 0 0 0 0 0 0 0 127 0" result="hardAlpha"/>
<feOffset dy="4"/>
<feGaussianBlur stdDeviation="2"/>
<feComposite in2="hardAlpha" operator="out"/>
<feColorMatrix type="matrix" values="0 0 0 0 0 0 0 0 0 0 0 0 0 0 0 0 0 0 0.25 0"/>
<feBlend mode="normal" in2="BackgroundImageFix" result="effect1_dropShadow_52_274"/>
<feBlend mode="normal" in="SourceGraphic" in2="effect1_dropShadow_52_274" result="shape"/>
</filter>
</defs>
</svg>
