<svg width="277" height="112" viewBox="0 0 277 112" fill="none" xmlns="http://www.w3.org/2000/svg">
<g clip-path="url(#clip0_62_202)">
<path d="M-7.59851 9.64706L-3.47554 5.64706H30.0236L66.6149 7.14706L114.029 5.64706L162.989 7.14706H223.288L250.345 6.39706L277.401 5.64706V19.6471L263.486 21.6471L220.711 19.6471L162.989 21.6471L114.029 19.6471L66.6149 21.6471L30.0236 19.6471L-7.59851 21.6471V14.6471V9.64706Z" fill="#498C00" stroke="black"/>
<path d="M220.401 5.64706L219.901 11.6471L221.401 17.6471" stroke="black"/>
<path d="M163.901 5.14706V19.6471" stroke="black"/>
<path d="M35.9015 3.14706V17.5329" stroke="black"/>
<path d="M71.9015 5.14706V19.4008" stroke="black"/>
<path d="M118.401 3.64706L117.401 17.6471" stroke="black"/>
<path d="M261.901 4.14706L262.901 19.6471" stroke="black"/>
<path d="M0.401489 34.3743L4.40149 38.6168H36.9015L72.4015 37.0259L118.401 38.6168L165.901 37.0259H224.401L250.651 37.8213L276.901 38.6168V23.7683L263.401 21.6471L221.901 23.7683L165.901 21.6471L118.401 23.7683L72.4015 21.6471L36.9015 23.7683L0.401489 21.6471V29.0713V34.3743Z" fill="#498C00" stroke="black"/>
<path d="M220.901 36.4956L220.401 30.1319L221.901 23.7683" stroke="black"/>
<path d="M164.401 37.0258V21.6471" stroke="black"/>
<path d="M36.4015 39.1471V23.8894" stroke="black"/>
<path d="M72.4015 37.0258V21.9083" stroke="black"/>
<path d="M118.901 38.6168L117.901 23.7683" stroke="black"/>
<path d="M262.401 38.0865L263.401 21.6471" stroke="black"/>
<path d="M0.401489 44.1471L4.40149 40.1471H36.9015L72.4015 41.6471L118.401 40.1471L165.901 41.6471H224.401L250.651 40.8971L276.901 40.1471V54.1471L263.401 56.1471L221.901 54.1471L165.901 56.1471L118.401 54.1471L72.4015 56.1471L36.9015 54.1471L0.401489 56.1471V49.1471V44.1471Z" fill="#498C00" stroke="black"/>
<path d="M220.901 42.1471L220.401 48.1471L221.901 54.1471" stroke="black"/>
<path d="M164.401 41.6471V56.1471" stroke="black"/>
<path d="M36.4015 39.6471V54.0329" stroke="black"/>
<path d="M72.4015 41.6471V55.9008" stroke="black"/>
<path d="M118.901 40.1471L117.901 54.1471" stroke="black"/>
<path d="M262.401 40.6471L263.401 56.1471" stroke="black"/>
<path d="M0.901489 70.8743L4.90149 75.1168H37.4015L72.9015 73.5259L118.901 75.1168L166.401 73.5259H224.901L251.151 74.3213L277.401 75.1168V60.2683L263.901 58.1471L222.401 60.2683L166.401 58.1471L118.901 60.2683L72.9015 58.1471L37.4015 60.2683L0.901489 58.1471V65.5713V70.8743Z" fill="#498C00" stroke="black"/>
<path d="M221.401 72.9955L220.901 66.6319L222.401 60.2683" stroke="black"/>
<path d="M164.901 73.5258V58.1471" stroke="black"/>
<path d="M36.9015 75.6471V60.3894" stroke="black"/>
<path d="M72.9015 73.5258V58.4083" stroke="black"/>
<path d="M119.401 75.1168L118.401 60.2683" stroke="black"/>
<path d="M262.901 74.5865L263.901 58.1471" stroke="black"/>
<path d="M0.401489 80.1471L4.40149 76.1471H36.9015L72.4015 77.6471L118.401 76.1471L165.901 77.6471H224.401L250.651 76.8971L276.901 76.1471V90.1471L263.401 92.1471L221.901 90.1471L165.901 92.1471L118.401 90.1471L72.4015 92.1471L36.9015 90.1471L0.401489 92.1471V85.1471V80.1471Z" fill="#498C00" stroke="black"/>
<path d="M220.901 78.1471L220.401 84.1471L221.901 90.1471" stroke="black"/>
<path d="M164.401 77.6471V92.1471" stroke="black"/>
<path d="M36.4015 75.6471V90.0329" stroke="black"/>
<path d="M72.4015 77.6471V91.9008" stroke="black"/>
<path d="M118.901 76.1471L117.901 90.1471" stroke="black"/>
<path d="M262.401 76.6471L263.401 92.1471" stroke="black"/>
<path d="M0.901489 106.874L4.90149 111.117H37.4015L72.9015 109.526L118.901 111.117L166.401 109.526H224.901L251.151 110.321L277.401 111.117V96.2683L263.901 94.1471L222.401 96.2683L166.401 94.1471L118.901 96.2683L72.9015 94.1471L37.4015 96.2683L0.901489 94.1471V101.571V106.874Z" fill="#498C00" stroke="black"/>
<path d="M221.401 108.996L220.901 102.632L222.401 96.2683" stroke="black"/>
<path d="M164.901 109.526V94.1471" stroke="black"/>
<path d="M36.9015 111.647V96.3894" stroke="black"/>
<path d="M72.9015 109.526V94.4083" stroke="black"/>
<path d="M119.401 111.117L118.401 96.2683" stroke="black"/>
<path d="M262.901 110.586L263.901 94.1471" stroke="black"/>
</g>
<path d="M17.6294 32.6471C28.2091 30.2869 34.0153 28.4253 44.0338 23.6471C52.3595 28.7121 56.9095 30.3701 64.9579 32.6471V40.1471C56.4108 35.6473 51.6595 33.295 44.0338 32.6471C33.1971 34.3406 28.6283 36.3902 20.6186 40.1471L25.1023 48.1471C35.9537 51.2222 42.8391 52.2155 55.4922 53.6471C61.8145 58.5716 64.5205 61.2814 67.9471 66.1471C62.0756 72.9324 59.3277 76.7681 55.4922 83.6471C46.9073 84.4537 41.9958 85.6806 33.0735 89.1471C27.8037 86.5851 24.6391 85.2627 17.6294 83.6471V74.6471C23.7252 77.5425 27.1173 78.8743 33.0735 80.1471C41.4087 80.5085 45.77 79.8471 53.0013 77.1471C55.2215 73.791 57.0988 71.6443 60.4742 66.1471C58.7803 63.9809 57.3301 62.9335 53.0013 61.6471C39.8912 57.5562 32.3289 55.5541 17.6294 53.6471C15.7475 47.1581 14.4429 43.4839 10.1565 36.6471L17.6294 32.6471Z" fill="white"/>
<path d="M44.0338 23.6471C34.0153 28.4253 28.2091 30.2869 17.6294 32.6471M44.0338 23.6471V32.6471M44.0338 23.6471C52.3595 28.7121 56.9095 30.3701 64.9579 32.6471V40.1471C56.4108 35.6473 51.6595 33.295 44.0338 32.6471M17.6294 32.6471L20.6186 40.1471M17.6294 32.6471L10.1565 36.6471C14.4429 43.4839 15.7475 47.1581 17.6294 53.6471M20.6186 40.1471C28.6283 36.3902 33.1971 34.3406 44.0338 32.6471M20.6186 40.1471L25.1023 48.1471M25.1023 48.1471C21.0214 49.6852 19.8284 51.1219 17.6294 53.6471M25.1023 48.1471C35.9537 51.2222 42.8391 52.2155 55.4922 53.6471M17.6294 53.6471C32.3289 55.5541 39.8912 57.5562 53.0013 61.6471M55.4922 53.6471C53.0566 57.0562 52.2833 58.8522 53.0013 61.6471M55.4922 53.6471C61.8145 58.5716 64.5205 61.2814 67.9471 66.1471M53.0013 61.6471C57.3301 62.9335 58.7803 63.9809 60.4742 66.1471M67.9471 66.1471C62.0756 72.9324 59.3277 76.7681 55.4922 83.6471M67.9471 66.1471H60.4742M55.4922 83.6471L53.0013 77.1471M55.4922 83.6471C46.9073 84.4537 41.9958 85.6806 33.0735 89.1471M53.0013 77.1471C55.2216 73.7909 57.0988 71.6443 60.4742 66.1471M53.0013 77.1471C45.77 79.8471 41.4087 80.5085 33.0735 80.1471M33.0735 80.1471V89.1471M33.0735 80.1471C27.1173 78.8743 23.7252 77.5425 17.6294 74.6471V83.6471C24.6391 85.2627 27.8037 86.5851 33.0735 89.1471" stroke="black"/>
<path d="M75.9471 35.3971L79.1313 29.3971C84.9129 30.1496 95.1845 29.3971 95.1845 29.3971C102.297 30.3106 107.884 30.4266 115.635 30.015C118.359 29.8703 121.351 29.6604 124.77 29.3971L122.117 35.3971C117.557 34.8388 115.001 34.8666 110.442 35.3971H105.666C105.016 39.0232 104.685 40.9656 104.472 43.3971L103.535 48.8971C101.258 56.7319 100.734 60.9837 100.707 68.3971L98.5013 83.3971H91.8677L93.5261 71.3971C95.4344 63.0091 96.2943 58.186 96.6356 48.8971C96.6356 48.8971 96.6356 47.8971 97.1746 44.9971C97.7136 42.0971 98.3271 39.4318 98.5013 35.3971H86.0302C83.8981 35.1694 82.2842 35.0946 75.9471 35.3971Z" fill="white"/>
<path d="M95.1845 29.3971C104.797 30.6317 111.624 30.4096 124.77 29.3971L122.117 35.3971C117.557 34.8388 115.001 34.8666 110.442 35.3971M95.1845 29.3971C95.1845 29.3971 84.9129 30.1496 79.1313 29.3971L75.9471 35.3971C82.2842 35.0946 83.8981 35.1694 86.0302 35.3971M95.1845 29.3971L86.0302 35.3971M98.5013 35.3971C98.3271 39.4318 97.7136 42.0971 97.1746 44.9971C96.6356 47.8971 96.6356 48.8971 96.6356 48.8971M98.5013 35.3971H86.0302M98.5013 35.3971H102.083H105.666M105.666 35.3971C105.016 39.0232 104.685 40.9656 104.472 43.3971L103.535 48.8971M105.666 35.3971H110.442M96.6356 48.8971H103.535M96.6356 48.8971C96.2943 58.186 95.4344 63.0091 93.5261 71.3971M103.535 48.8971C101.258 56.7319 100.734 60.9837 100.707 68.3971M115.749 29.8971L110.442 35.3971M93.5261 71.3971L91.8677 83.3971H98.5013L100.707 68.3971M93.5261 71.3971L100.707 68.3971" stroke="black"/>
<path d="M138.824 81.8971L132.77 83.3971C136.917 73.0029 139.974 64.8471 142.715 56.3971C146.125 48.8694 148.178 40.4316 150.324 29.3971H156.293C155.899 29.5009 149.102 55.2978 148.375 56.3971C147.648 57.4963 138.114 81.7566 138.824 81.8971Z" fill="white"/>
<path d="M148.375 56.3971C147.648 57.4963 138.114 81.7566 138.824 81.8971L132.77 83.3971C136.917 73.0029 139.974 64.8471 142.715 56.3971M148.375 56.3971C149.102 55.2978 155.899 29.5009 156.293 29.3971L150.324 29.3971C148.178 40.4316 146.125 48.8694 142.715 56.3971M148.375 56.3971C146.117 55.775 144.973 55.7478 142.715 56.3971" stroke="black"/>
<path d="M168.324 81.8971L174.228 83.3971C169.811 71.6354 166.62 62.7567 163.64 53.3971C161.311 46.6446 159.154 39.0249 156.675 29.3971H150.315C154.925 39.5475 158.729 47.3825 160.182 55.3971C164.048 63.3531 166.173 71.4482 168.324 81.8971Z" fill="white"/>
<path d="M160.182 55.3971C164.048 63.3531 166.173 71.4482 168.324 81.8971L174.228 83.3971C169.811 71.6354 166.62 62.7567 163.64 53.3971M160.182 55.3971C158.729 47.3825 154.925 39.5475 150.315 29.3971H156.675C159.154 39.0249 161.311 46.6446 163.64 53.3971M160.182 55.3971C161.255 53.9633 162.034 53.5756 163.64 53.3971" stroke="black"/>
<path d="M167.751 65.3971C156.511 66.5776 150.298 66.5516 139.354 65.3971L137.86 69.3971C150.606 68.7952 157.415 69.0069 169.246 69.8971L167.751 65.3971Z" fill="white" stroke="black"/>
<path d="M187.466 81.0809L182.838 83.581C182.838 83.581 181.466 84.581 182.838 81.081C183.599 79.1387 184.182 63.837 184.287 50.5809C184.372 39.9494 184.15 30.6337 183.466 30.581L188.816 29.0809C188.87 37.176 188.824 43.8167 188.691 50.0809C188.553 56.5845 188.32 62.6824 188.009 69.5809C187.849 73.1451 187.667 76.923 187.466 81.0809Z" fill="white"/>
<path d="M184.287 50.5809C184.372 39.9494 184.15 30.6337 183.466 30.581L188.816 29.0809C188.87 37.176 188.824 43.8167 188.691 50.0809M184.287 50.5809C184.182 63.837 183.599 79.1387 182.838 81.081C181.466 84.581 182.838 83.581 182.838 83.581L187.466 81.0809C187.667 76.923 187.849 73.1451 188.009 69.5809M184.287 50.5809C186.108 50.0064 187.069 49.9135 188.691 50.0809M188.691 50.0809C188.553 56.5845 188.32 62.6824 188.009 69.5809M184.287 70.5809C182.805 71.0107 185.649 69.8522 188.009 69.5809" stroke="black"/>
<path d="M188.816 29.581C196.693 31.1639 201.162 31.6305 209.242 31.581C211.563 36.436 213.152 38.9824 216.715 43.081C214.543 46.4978 213.902 48.4831 213.228 52.081C210.443 54.1038 208.967 55.2798 206.751 57.581C204.115 58.1629 202.932 58.6974 200.723 59.581C193.661 59.4145 190.989 59.3051 188.766 59.081L188.816 55.581C193.606 56.1934 196.061 55.9461 200.275 55.081C203.626 53.3649 205.632 52.5859 207.747 49.081C209.986 47.1412 210.799 45.8509 211.235 43.081C210.601 40.262 209.918 38.7188 207.698 36.081C201.226 34.7638 197.136 34.1959 188.766 33.581L188.816 29.581Z" fill="white"/>
<path d="M209.242 31.581C201.162 31.6305 196.693 31.1639 188.816 29.581L188.766 33.581C197.136 34.1959 201.226 34.7638 207.698 36.081M209.242 31.581L207.698 36.081M209.242 31.581C211.563 36.436 213.152 38.9824 216.715 43.081M207.698 36.081C209.918 38.7188 210.601 40.262 211.235 43.081M211.235 43.081H216.715M211.235 43.081C210.799 45.8509 209.986 47.1412 207.747 49.081M216.715 43.081C214.543 46.4978 213.902 48.4831 213.228 52.081M207.747 49.081L213.228 52.081M207.747 49.081C205.632 52.5859 203.626 53.3649 200.275 55.081M213.228 52.081C210.443 54.1038 208.967 55.2798 206.751 57.581C204.115 58.1629 202.932 58.6974 200.723 59.581M200.275 55.081C196.061 55.9461 193.606 56.1934 188.816 55.581L188.766 59.081C190.989 59.3051 193.661 59.4145 200.723 59.581M200.275 55.081L200.723 59.581" stroke="black"/>
<path d="M213.466 80.581C204.266 71.7836 201.116 69.2356 193.798 59.581H188.816V63.081C197.126 70.6633 201.107 75.0831 207.747 83.081L213.466 80.581Z" fill="white" stroke="black"/>
<path d="M224.715 35.3971L227.899 29.3971C233.681 30.1496 243.952 29.3971 243.952 29.3971C251.065 30.3106 256.652 30.4266 264.403 30.015C267.127 29.8703 270.119 29.6604 273.538 29.3971L270.885 35.3971C266.325 34.8388 263.769 34.8666 259.21 35.3971H254.433C253.784 39.0232 253.453 40.9656 253.239 43.3971L252.302 48.8971C250.026 56.7319 249.501 60.9837 249.475 68.3971L247.269 83.3971H240.636L242.294 71.3971C244.202 63.0091 245.062 58.186 245.403 48.8971C245.403 48.8971 245.403 47.8971 245.942 44.9971C246.481 42.0971 247.095 39.4318 247.269 35.3971H234.798C232.666 35.1694 231.052 35.0946 224.715 35.3971Z" fill="white"/>
<path d="M243.952 29.3971C253.565 30.6317 260.392 30.4096 273.538 29.3971L270.885 35.3971C266.325 34.8388 263.769 34.8666 259.21 35.3971M243.952 29.3971C243.952 29.3971 233.681 30.1496 227.899 29.3971L224.715 35.3971C231.052 35.0946 232.666 35.1694 234.798 35.3971M243.952 29.3971L234.798 35.3971M247.269 35.3971C247.095 39.4318 246.481 42.0971 245.942 44.9971C245.403 47.8971 245.403 48.8971 245.403 48.8971M247.269 35.3971H234.798M247.269 35.3971H250.851H254.433M254.433 35.3971C253.784 39.0232 253.453 40.9656 253.239 43.3971L252.302 48.8971M254.433 35.3971H259.21M245.403 48.8971H252.302M245.403 48.8971C245.062 58.186 244.202 63.0091 242.294 71.3971M252.302 48.8971C250.026 56.7319 249.501 60.9837 249.475 68.3971M264.516 29.8971L259.21 35.3971M242.294 71.3971L240.636 83.3971H247.269L249.475 68.3971M242.294 71.3971L249.475 68.3971" stroke="black"/>
<defs>
<clipPath id="clip0_62_202">
<rect width="276" height="111" fill="white" transform="translate(0.401489 0.647064)"/>
</clipPath>
</defs>
</svg>
