<svg width="261" height="387" viewBox="0 0 261 387" fill="none" xmlns="http://www.w3.org/2000/svg">
<path d="M122.53 158.124L88.9969 158.046L87.1576 160.308L88.9907 163.899L95.9536 164.034L115.695 199.425L121.153 208.615L123.415 210.455L123.216 196.699L122.276 197.04L118.515 198.403L99.7553 164.252L122.354 163.506L122.53 158.124Z" fill="#498C00"/>
<path d="M122.53 158.124L88.9969 158.046L87.1576 160.308L88.9907 163.899L95.9536 164.034L115.695 199.425L121.153 208.615L123.415 210.455L123.216 196.699L122.276 197.04L118.515 198.403L99.7553 164.252L122.354 163.506L122.53 158.124Z" fill="black" fill-opacity="0.5"/>
<path d="M122.53 158.124L88.9969 158.046L87.1576 160.308L88.9907 163.899L95.9536 164.034L115.695 199.425L121.153 208.615L123.415 210.455L123.216 196.699L122.276 197.04L118.515 198.403L99.7553 164.252L122.354 163.506L122.53 158.124Z" stroke="black"/>
<path d="M120.372 56.7951L118.882 11.5979L119.91 8.56605L124.57 5.28165L134.823 4.22445L141.357 6.11088L140.969 9.44247L139.592 59.9336L140.67 131.872L142.477 201.418L142.326 206.871L139.946 292.747L138.573 379.932C129.706 381.05 125.456 380.673 118.925 378.545L119.774 301.653L120.468 291.829L123.573 222.629L123.34 205.695L123.216 196.699L121.403 133.005L120.372 56.7951Z" fill="#95D92B"/>
<path d="M120.372 56.7951L118.882 11.5979L119.91 8.56605L124.57 5.28165L134.823 4.22445L141.357 6.11088L140.969 9.44247L139.592 59.9336L140.67 131.872L142.477 201.418L142.326 206.871L139.946 292.747L138.573 379.932C129.706 381.05 125.456 380.673 118.925 378.545L119.774 301.653L120.468 291.829L123.573 222.629L123.34 205.695L123.216 196.699L121.403 133.005L120.372 56.7951Z" fill="black" fill-opacity="0.5"/>
<path d="M118.882 11.5979L120.372 56.7951M118.882 11.5979L119.91 8.56605L124.57 5.28165L134.823 4.22445L141.357 6.11088L140.969 9.44247M118.882 11.5979L122.554 12.926L130.158 13.3612L140.969 9.44247M120.372 56.7951L121.403 133.005M120.372 56.7951L124.385 59.0633L129.468 59.8803C131.503 60.0027 134.21 59.7571 134.21 59.7571L139.592 59.9336M121.403 133.005L123.216 196.699L123.34 205.695M121.403 133.005C124.618 134.057 126.425 134.635 129.988 134.68C134.965 134.044 137.361 133.462 140.67 131.872M120.468 291.829L123.573 222.629L123.34 205.695M120.468 291.829L119.774 301.653L118.925 378.545C125.456 380.673 129.706 381.05 138.573 379.932L139.946 292.747M120.468 291.829C123.654 292.896 125.691 293.32 129.693 293.804C131.93 293.875 133.425 293.873 137.596 293.598L139.946 292.747M139.946 292.747L142.326 206.871M140.67 131.872L142.477 201.418L142.326 206.871M140.67 131.872L139.592 59.9336M139.592 59.9336L140.969 9.44247M123.34 205.695C126.534 206.855 128.427 207.145 131.877 207.388C136.557 207.658 138.692 207.425 142.326 206.871" stroke="#214000"/>
<path d="M85.1437 125.406L80.4858 86.1432L84.5872 85.7203L92.6606 85.9851L94.1119 87.0546L93.9519 117.427L100.626 149.045L109.639 148.969C111.889 150.748 113.013 151.755 114.504 153.588L110.314 156.702L98.4394 156.219L92.8457 153.992L89.1323 151.083L85.1437 125.406Z" fill="#FF9C67"/>
<path d="M85.1437 125.406L80.4858 86.1432L84.5872 85.7203L92.6606 85.9851L94.1119 87.0546L93.9519 117.427L100.626 149.045L109.639 148.969C111.889 150.748 113.013 151.755 114.504 153.588L110.314 156.702L98.4394 156.219L92.8457 153.992L89.1323 151.083L85.1437 125.406Z" fill="black" fill-opacity="0.5"/>
<path d="M115.103 152.307C115.138 152.394 113.553 151.015 112.671 149.997L117.624 151.925L118.605 153.165L120.098 155.815L118.688 156.326L117.448 157.307L114.757 157.219L113.006 156.79L112.365 156.49L115.615 153.717L116.896 154.316L116.555 153.376C116.555 153.376 115.069 152.22 115.103 152.307Z" fill="#FF9C67"/>
<path d="M115.103 152.307C115.138 152.394 113.553 151.015 112.671 149.997L117.624 151.925L118.605 153.165L120.098 155.815L118.688 156.326L117.448 157.307L114.757 157.219L113.006 156.79L112.365 156.49L115.615 153.717L116.896 154.316L116.555 153.376C116.555 153.376 115.069 152.22 115.103 152.307Z" fill="black" fill-opacity="0.5"/>
<path d="M85.1437 125.406L80.4858 86.1432L84.5872 85.7203L92.6606 85.9851L94.1119 87.0546L93.9519 117.427L100.626 149.045L109.639 148.969C111.889 150.748 113.013 151.755 114.504 153.588L110.314 156.702L98.4394 156.219L92.8457 153.992L89.1323 151.083L85.1437 125.406Z" stroke="black"/>
<path d="M115.103 152.307C115.138 152.394 113.553 151.015 112.671 149.997L117.624 151.925L118.605 153.165L120.098 155.815L118.688 156.326L117.448 157.307L114.757 157.219L113.006 156.79L112.365 156.49L115.615 153.717L116.896 154.316L116.555 153.376C116.555 153.376 115.069 152.22 115.103 152.307Z" stroke="black"/>
<path d="M69.1588 51.9572L69.13 38.6719L67.0855 33.031L77.4271 29.2826L83.5792 28.6483L109.809 27.6505L104.683 67.8L100.605 87.3605L94.0709 85.4741L85.9975 85.2093L79.0757 86.6545L69.1588 51.9572Z" fill="#A59A00"/>
<path d="M69.1588 51.9572L69.13 38.6719L67.0855 33.031L77.4271 29.2826L83.5792 28.6483L109.809 27.6505L104.683 67.8L100.605 87.3605L94.0709 85.4741L85.9975 85.2093L79.0757 86.6545L69.1588 51.9572Z" fill="black" fill-opacity="0.5"/>
<path d="M69.1588 51.9572L69.13 38.6719L67.0855 33.031L77.4271 29.2826L83.5792 28.6483L109.809 27.6505L104.683 67.8L100.605 87.3605L94.0709 85.4741L85.9975 85.2093L79.0757 86.6545L69.1588 51.9572Z" stroke="black"/>
<path d="M92.117 156.384L92.0349 153.222L97.4993 156.56L111.255 156.361L115.444 153.247L109.639 148.969L116.525 150.275L121.038 155.474L118.429 158.547L97.7107 158.611L92.117 156.384Z" fill="black"/>
<path d="M92.117 156.384L92.0349 153.222L97.4993 156.56L111.255 156.361L115.444 153.247L109.639 148.969L116.525 150.275L121.038 155.474L118.429 158.547L97.7107 158.611L92.117 156.384Z" fill="black" fill-opacity="0.5"/>
<path d="M116.473 150.215L116.525 150.275M116.085 153.547L116.041 153.581M116.525 150.275L121.038 155.474L118.429 158.547L97.7107 158.611L92.117 156.384L92.0349 153.222L97.4993 156.56L111.255 156.361L115.444 153.247L109.639 148.969L116.525 150.275Z" stroke="black"/>
</svg>
