<svg width="90" height="92" viewBox="0 0 90 92" fill="none" xmlns="http://www.w3.org/2000/svg">
<g clip-path="url(#clip0_71_1165)">
<path d="M-7.5575 9.17645L-3.43453 5.17645H30.0646L66.6559 6.67645L114.07 5.17645L163.03 6.67645H223.329L250.386 5.92645L277.443 5.17645V19.1765L263.527 21.1765L220.752 19.1765L163.03 21.1765L114.07 19.1765L66.6559 21.1765L30.0646 19.1765L-7.5575 21.1765V14.1765V9.17645Z" fill="#498C00" stroke="black"/>
<path d="M35.9425 2.67645V17.0623" stroke="black"/>
<path d="M71.9425 4.67645V18.9302" stroke="black"/>
<path d="M0.442505 33.9037L4.4425 38.1461H36.9425L72.4425 36.5552L118.443 38.1461L165.943 36.5552H224.443L250.693 37.3507L276.943 38.1461V23.2977L263.443 21.1765L221.943 23.2977L165.943 21.1765L118.443 23.2977L72.4425 21.1765L36.9425 23.2977L0.442505 21.1765V28.6007V33.9037Z" fill="#498C00" stroke="black"/>
<path d="M36.4425 38.6765V23.4188" stroke="black"/>
<path d="M72.4425 36.5552V21.4377" stroke="black"/>
<path d="M0.442505 43.6765L4.4425 39.6765H36.9425L72.4425 41.1765L118.443 39.6765L165.943 41.1765H224.443L250.693 40.4265L276.943 39.6765V53.6765L263.443 55.6765L221.943 53.6765L165.943 55.6765L118.443 53.6765L72.4425 55.6765L36.9425 53.6765L0.442505 55.6765V48.6765V43.6765Z" fill="#498C00" stroke="black"/>
<path d="M36.4425 39.1765V53.5623" stroke="black"/>
<path d="M72.4425 41.1765V55.4302" stroke="black"/>
<path d="M0.942505 70.4037L4.9425 74.6461H37.4425L72.9425 73.0552L118.943 74.6461L166.443 73.0552H224.943L251.193 73.8507L277.443 74.6461V59.7977L263.943 57.6765L222.443 59.7977L166.443 57.6765L118.943 59.7977L72.9425 57.6765L37.4425 59.7977L0.942505 57.6765V65.1007V70.4037Z" fill="#498C00" stroke="black"/>
<path d="M36.9425 75.1765V59.9188" stroke="black"/>
<path d="M72.9425 73.0552V57.9377" stroke="black"/>
<path d="M0.442505 79.6765L4.4425 75.6765H36.9425L72.4425 77.1765L118.443 75.6765L165.943 77.1765H224.443L250.693 76.4265L276.943 75.6765V89.6765L263.443 91.6765L221.943 89.6765L165.943 91.6765L118.443 89.6765L72.4425 91.6765L36.9425 89.6765L0.442505 91.6765V84.6765V79.6765Z" fill="#498C00" stroke="black"/>
<path d="M36.4425 75.1765V89.5623" stroke="black"/>
<path d="M72.4425 77.1765V91.4302" stroke="black"/>
</g>
<path d="M12.9398 43.1397L47.6546 14.0624L80.9808 43.1397H69.8721V83.492H52.5147H39.3231H23.3543V43.1397H12.9398Z" fill="white"/>
<path d="M23.3543 43.1397H12.9398L47.6546 14.0624L80.9808 43.1397H69.8721M23.3543 43.1397V83.492H39.3231M23.3543 43.1397H69.8721M69.8721 43.1397V83.492H52.5147M39.3231 83.492V63.9093H52.5147V83.492M39.3231 83.492H52.5147" stroke="black" stroke-width="2"/>
<defs>
<clipPath id="clip0_71_1165">
<rect width="88.8699" height="91.6471" fill="white" transform="translate(0.442505 0.176453)"/>
</clipPath>
</defs>
</svg>
