<svg width="90" height="92" viewBox="0 0 90 92" fill="none" xmlns="http://www.w3.org/2000/svg">
<g clip-path="url(#clip0_133_3285)">
<path d="M-7.55737 9.17651L-3.43441 5.17651H30.0647L66.656 6.67651L114.07 5.17651L163.03 6.67651H223.329L250.386 5.92651L277.443 5.17651V19.1765L263.528 21.1765L220.752 19.1765L163.03 21.1765L114.07 19.1765L66.656 21.1765L30.0647 19.1765L-7.55737 21.1765V14.1765V9.17651Z" fill="#498C00" stroke="black"/>
<path d="M35.9426 2.67651V17.0623" stroke="black"/>
<path d="M71.9426 4.67651V18.9302" stroke="black"/>
<path d="M0.442627 33.9038L4.44263 38.1462H36.9426L72.4426 36.5553L118.443 38.1462L165.943 36.5553H224.443L250.693 37.3508L276.943 38.1462V23.2978L263.443 21.1765L221.943 23.2978L165.943 21.1765L118.443 23.2978L72.4426 21.1765L36.9426 23.2978L0.442627 21.1765V28.6008V33.9038Z" fill="#498C00" stroke="black"/>
<path d="M36.4426 38.6765V23.4188" stroke="black"/>
<path d="M72.4426 36.5553V21.4377" stroke="black"/>
<path d="M0.442627 43.6765L4.44263 39.6765H36.9426L72.4426 41.1765L118.443 39.6765L165.943 41.1765H224.443L250.693 40.4265L276.943 39.6765V53.6765L263.443 55.6765L221.943 53.6765L165.943 55.6765L118.443 53.6765L72.4426 55.6765L36.9426 53.6765L0.442627 55.6765V48.6765V43.6765Z" fill="#498C00" stroke="black"/>
<path d="M36.4426 39.1765V53.5623" stroke="black"/>
<path d="M72.4426 41.1765V55.4302" stroke="black"/>
<path d="M0.942627 70.4038L4.94263 74.6462H37.4426L72.9426 73.0553L118.943 74.6462L166.443 73.0553H224.943L251.193 73.8508L277.443 74.6462V59.7978L263.943 57.6765L222.443 59.7978L166.443 57.6765L118.943 59.7978L72.9426 57.6765L37.4426 59.7978L0.942627 57.6765V65.1008V70.4038Z" fill="#498C00" stroke="black"/>
<path d="M36.9426 75.1765V59.9188" stroke="black"/>
<path d="M72.9426 73.0553V57.9377" stroke="black"/>
<path d="M0.442627 79.6765L4.44263 75.6765H36.9426L72.4426 77.1765L118.443 75.6765L165.943 77.1765H224.443L250.693 76.4265L276.943 75.6765V89.6765L263.443 91.6765L221.943 89.6765L165.943 91.6765L118.443 89.6765L72.4426 91.6765L36.9426 89.6765L0.442627 91.6765V84.6765V79.6765Z" fill="#498C00" stroke="black"/>
<path d="M36.4426 75.1765V89.5623" stroke="black"/>
<path d="M72.4426 77.1765V91.4302" stroke="black"/>
</g>
<path d="M23.3544 43.1397H12.9399L32.0001 29.5L48.0001 10.5L62.5001 29.5L80.981 43.1397H72.5001L71.1475 61.5L71.0001 63.5L72.5001 83.492H63.0001H57.5001H52.5148L46.0001 82.5L39.3232 83.492H33.5001H23.3544L24.5001 63L23.3544 43.1397Z" fill="white"/>
<path d="M23.3544 43.1397H12.9399L32.0001 29.5L48.0001 10.5L62.5001 29.5L80.981 43.1397H72.5001M23.3544 43.1397H33.5001M23.3544 43.1397L24.5001 63M33.5001 83.492L32.0001 71V64.25M33.5001 43.1397H41.0001H47.0001H52.5148H58.0001H64.0001M33.5001 43.1397L32.0001 57.5V64.25M39.3232 83.492H23.3544L24.5001 63M39.3232 83.492L40.0001 73.5L39.3232 63.9093H52.0295L51.5001 73.5L52.5148 83.492M39.3232 83.492L46.0001 82.5L52.5148 83.492M52.5148 83.492H57.5001H63.0001M72.5001 43.1397H64.0001M72.5001 43.1397L71.1475 61.5M64.0001 43.1397V63.9093M64.0001 63.9093L63.0001 83.492M64.0001 63.9093L71.1475 61.5M63.0001 83.492H72.5001L71.0001 63.5L71.1475 61.5M24.5001 63L32.0001 64.25" stroke="black" stroke-width="2"/>
<defs>
<clipPath id="clip0_133_3285">
<rect width="88.8699" height="91.6471" fill="white" transform="translate(0.442627 0.176514)"/>
</clipPath>
</defs>
</svg>
