<svg width="353" height="44" viewBox="0 0 353 44" fill="none" xmlns="http://www.w3.org/2000/svg">
<path d="M63.5 15.5C41.0806 23.9034 25.5215 21.4853 17.9293 26.33C-39.5889 41.3814 57.2522 40.3318 190.929 41.33C287.001 42.6191 369.143 46.6517 348.929 34.33L276.429 9.82999C270.952 6.95693 230.929 -0.670045 201.429 1.32998C171.929 3.33001 156.344 9.26626 112.429 9.82999C97.0629 9.882 102.899 15.6197 63.5 15.5Z" fill="#6F3E00" stroke="black"/>
<path d="M268 16.5806C259.229 13.5283 254.885 10.3433 242.5 16.5806C233.442 21.4525 230.171 20.816 226 16.5806" stroke="black"/>
<path d="M78 30.5806C69.229 27.5283 64.885 24.3433 52.5 30.5806C43.4419 35.4525 40.1707 34.816 36 30.5806" stroke="black"/>
<path d="M209 10.1206C203.415 7.14888 197.714 7.44116 184.714 10.1206C170.935 14.8116 170.441 13.0029 169 10.1206" stroke="black"/>
<path d="M162 28.1206C156.415 25.1489 150.714 25.4412 137.714 28.1206C123.935 32.8116 123.441 31.0029 122 28.1206" stroke="black"/>
<path d="M327 33.1206C318.762 30.1489 310.353 30.4412 291.179 33.1206C270.854 37.8116 270.125 36.0029 268 33.1206" stroke="black"/>
</svg>
