<svg width="618" height="106" viewBox="0 0 618 106" fill="none" xmlns="http://www.w3.org/2000/svg">
<path d="M2.00418 9.66667L7.09114 0C16.3279 1.21243 32.7379 0 32.7379 0C44.1008 1.47173 53.0271 1.65867 65.4094 0.995543C69.762 0.762441 74.5416 0.424299 80.0042 0L75.7651 9.66667C68.4808 8.76717 64.3969 8.81196 57.1129 9.66667H49.4824C48.4453 15.5088 47.9166 18.6382 47.5748 22.5556L46.0779 31.4167C42.441 44.0395 41.603 50.8896 41.5606 62.8333L38.0368 87H27.439L30.0884 67.6667C33.137 54.1527 34.5108 46.3822 35.0561 31.4167C35.0561 31.4167 35.0561 29.8056 35.9172 25.1333C36.7783 20.4611 37.7585 16.167 38.0368 9.66667H18.1129C14.7067 9.29991 12.1283 9.17937 2.00418 9.66667Z" fill="#498C00"/>
<path d="M32.7379 0C48.0951 1.98907 59.0017 1.63134 80.0042 0L75.765 9.66667C68.4808 8.76717 64.3969 8.81196 57.1129 9.66667M32.7379 0C32.7379 0 16.3279 1.21243 7.09114 0L2.00418 9.66667C12.1283 9.17937 14.7067 9.29991 18.1129 9.66667M32.7379 0L18.1129 9.66667M38.0368 9.66667C37.7585 16.167 36.7783 20.4611 35.9172 25.1333C35.0561 29.8056 35.0561 31.4167 35.0561 31.4167M38.0368 9.66667H18.1129M38.0368 9.66667H43.7596H49.4824M49.4824 9.66667C48.4453 15.5088 47.9166 18.6382 47.5748 22.5556L46.0779 31.4167M49.4824 9.66667H57.1129M35.0561 31.4167H46.0779M35.0561 31.4167C34.5108 46.3822 33.137 54.1527 30.0884 67.6667M46.0779 31.4167C42.441 44.0395 41.603 50.8896 41.5606 62.8333M65.5911 0.805555L57.1129 9.66667M30.0884 67.6667L27.439 87H38.0368L41.5606 62.8333M30.0884 67.6667L41.5606 62.8333" stroke="black" stroke-width="2"/>
<path d="M149.004 79L139.004 88L121.504 86L102.004 88L92.0042 79L88.0042 67L89.0042 35.5L88.0042 0L94.5042 2L100.504 0L98.188 31.5L98.0042 34L100.504 71L121.504 74L139.004 71L140.504 35.5L139.004 0L145.504 2L152.504 0L151.048 33L151.004 34L152.504 67L149.004 79Z" fill="#498C00"/>
<path d="M88.0042 67L100.504 71M88.0042 67L92.0042 79L102.004 88M88.0042 67L89.0042 35.5M102.004 88L100.504 71M102.004 88L121.504 86M139.004 88V71M139.004 88L149.004 79L152.504 67M139.004 88L121.504 86M152.504 67L139.004 71M152.504 67L151.004 34L151.048 33M139.004 71L140.504 35.5M139.004 71L121.504 74M100.504 71L98.0042 34L98.188 31.5M100.504 71L121.504 74M140.504 35.5L139.004 0L145.504 2L152.504 0L151.048 33M140.504 35.5L151.048 33M89.0042 35.5L88.0042 0L94.5042 2L100.504 0L98.188 31.5M89.0042 35.5L98.188 31.5M121.504 74V86" stroke="black" stroke-width="2"/>
<path d="M160.504 9.66667L165.591 0C174.828 1.21243 191.238 0 191.238 0C202.601 1.47173 211.527 1.65867 223.909 0.995543C228.262 0.762441 233.042 0.424299 238.504 0L234.265 9.66667C226.981 8.76717 222.897 8.81196 215.613 9.66667H207.982C206.945 15.5088 206.417 18.6382 206.075 22.5556L204.578 31.4167C200.941 44.0395 200.103 50.8896 200.061 62.8333L196.537 87H185.939L188.588 67.6667C191.637 54.1527 193.011 46.3822 193.556 31.4167C193.556 31.4167 193.556 29.8056 194.417 25.1333C195.278 20.4611 196.258 16.167 196.537 9.66667H176.613C173.207 9.29991 170.628 9.17937 160.504 9.66667Z" fill="#498C00"/>
<path d="M191.238 0C206.595 1.98907 217.502 1.63134 238.504 0L234.265 9.66667C226.981 8.76717 222.897 8.81196 215.613 9.66667M191.238 0C191.238 0 174.828 1.21243 165.591 0L160.504 9.66667C170.628 9.17937 173.207 9.29991 176.613 9.66667M191.238 0L176.613 9.66667M196.537 9.66667C196.258 16.167 195.278 20.4611 194.417 25.1333C193.556 29.8056 193.556 31.4167 193.556 31.4167M196.537 9.66667H176.613M196.537 9.66667H202.26H207.982M207.982 9.66667C206.945 15.5088 206.417 18.6382 206.075 22.5556L204.578 31.4167M207.982 9.66667H215.613M193.556 31.4167H204.578M193.556 31.4167C193.011 46.3822 191.637 54.1527 188.588 67.6667M204.578 31.4167C200.941 44.0395 200.103 50.8896 200.061 62.8333M224.091 0.805555L215.613 9.66667M188.588 67.6667L185.939 87H196.537L200.061 62.8333M188.588 67.6667L200.061 62.8333" stroke="black" stroke-width="2"/>
<path d="M275.977 85.3149C269.729 78.9917 264.537 75.9597 253.484 71.0958L252.394 66.6523C253.028 57.5463 251.909 52.3076 246.504 42.6575H258.328C259.501 51.8699 262.66 59.8436 268.181 67.9853C278.184 70.7127 289.061 69.0726 288.932 67.9853C294.731 61.0622 297.741 52.0169 296.754 42.6575H312.429C307.246 53.7682 305.157 59.9957 304.673 71.0958C296.46 75.5309 292.508 78.489 287.61 85.3149C283.536 82.2424 281.163 81.0983 275.977 85.3149Z" fill="#498C00"/>
<path d="M304.673 71.0958C296.46 75.5309 292.508 78.489 287.61 85.3149C283.536 82.2424 281.163 81.0983 275.977 85.3149C269.729 78.9917 264.537 75.9597 253.484 71.0958L252.394 66.6523M304.673 71.0958C305.157 59.9957 307.246 53.7682 312.429 42.6575H296.754C297.741 52.0169 294.731 61.0622 288.932 67.9853M304.673 71.0958L288.932 67.9853M288.932 67.9853C289.061 69.0726 278.184 70.7127 268.181 67.9853M268.181 67.9853C262.66 59.8436 259.501 51.8699 258.328 42.6575H246.504C251.909 52.3076 253.028 57.5463 252.394 66.6523M268.181 67.9853L252.394 66.6523" stroke="black" stroke-width="2"/>
<path d="M253.402 14.2192C252.649 26.5269 251.188 32.782 246.504 42.6575H258.328C259.678 33.0264 261.468 24.4447 266.759 16.75C275.094 10.1826 285.514 11.2101 290.622 16.75C296.907 25.1895 297.173 33.8097 296.754 42.6575H313.504C310.511 31.5516 306.982 25.325 303.989 14.2192C296.254 9.23929 292.474 6.1689 287.127 3.8147e-06C280.982 0.973843 278.585 0.902309 275.63 3.8147e-06C268.543 7.35077 263.148 9.86769 253.402 14.2192Z" fill="#498C00"/>
<path d="M253.402 14.2192C252.649 26.5269 251.188 32.782 246.504 42.6575H258.328C259.678 33.0264 261.468 24.4447 266.759 16.75M253.402 14.2192C263.148 9.8677 268.543 7.35077 275.63 4.81457e-06C278.585 0.902308 280.982 0.973841 287.127 4.81457e-06C292.474 6.1689 296.254 9.23929 303.989 14.2192M253.402 14.2192C258.856 17.73 259.082 15.36 266.759 16.75M303.989 14.2192C306.982 25.325 310.511 31.5516 313.504 42.6575H296.754C297.173 33.8097 296.907 25.1895 290.622 16.75M303.989 14.2192C296.026 14.7876 295.953 12.6262 290.622 16.75M290.622 16.75C285.514 11.2101 275.094 10.1826 266.759 16.75" stroke="black" stroke-width="2"/>
<path d="M330.185 81.6015L322.515 85.5247C322.515 85.5247 320.241 87.094 322.515 81.6015C323.776 78.5536 324.742 54.5413 324.917 33.7391C325.058 17.0555 324.689 2.43673 323.556 2.3539L332.422 0C332.512 12.7032 332.436 23.1242 332.215 32.9545C331.986 43.1603 331.601 52.7295 331.086 63.555C330.819 69.1482 330.518 75.0766 330.185 81.6015Z" fill="#498C00"/>
<path d="M324.917 33.7391C325.058 17.0555 324.689 2.43673 323.556 2.3539L332.422 0C332.512 12.7032 332.436 23.1242 332.215 32.9545M324.917 33.7391C324.742 54.5413 323.776 78.5536 322.515 81.6016C320.241 87.094 322.515 85.5247 322.515 85.5247L330.185 81.6015C330.518 75.0766 330.819 69.1482 331.086 63.555M324.917 33.7391C327.935 32.8375 329.527 32.6917 332.215 32.9545M332.215 32.9545C331.986 43.1603 331.601 52.7295 331.086 63.555M324.917 65.1243C322.46 65.7987 327.174 63.9807 331.086 63.555" stroke="black" stroke-width="2"/>
<path d="M332.442 0.756332C345.444 3.43019 352.821 4.21829 366.16 4.13461C369.99 12.3355 372.614 16.6366 378.496 23.5597C374.911 29.3313 373.853 32.6846 372.739 38.7619C368.142 42.1787 365.705 44.1652 362.048 48.0522C357.697 49.0352 355.744 49.9379 352.097 51.4304C340.44 51.1493 336.028 50.9645 332.36 50.5859L332.442 44.6739C340.349 45.7085 344.401 45.2907 351.357 43.8293C356.89 40.9307 360.201 39.6148 363.693 33.6945C367.387 30.4179 368.73 28.2385 369.45 23.5597C368.403 18.798 367.275 16.1913 363.611 11.7357C352.927 9.5108 346.176 8.55168 332.36 7.51288L332.442 0.756332Z" fill="#498C00"/>
<path d="M366.16 4.13461C352.821 4.21829 345.444 3.43019 332.442 0.756332L332.36 7.51288C346.176 8.55168 352.927 9.5108 363.611 11.7357M366.16 4.13461L363.611 11.7357M366.16 4.13461C369.99 12.3355 372.614 16.6366 378.496 23.5597M363.611 11.7357C367.275 16.1913 368.403 18.798 369.45 23.5597M369.45 23.5597H378.496M369.45 23.5597C368.73 28.2385 367.387 30.4179 363.693 33.6945M378.496 23.5597C374.911 29.3313 373.853 32.6846 372.739 38.7619M363.693 33.6945L372.739 38.7619M363.693 33.6945C360.201 39.6148 356.89 40.9307 351.357 43.8293M372.739 38.7619C368.142 42.1787 365.705 44.1652 362.048 48.0522C357.697 49.0352 355.744 49.9379 352.097 51.4304M351.357 43.8293C344.401 45.2907 340.349 45.7084 332.442 44.6739L332.36 50.5859C336.028 50.9645 340.44 51.1493 352.097 51.4304M351.357 43.8293L352.097 51.4304" stroke="black" stroke-width="2"/>
<path d="M373.201 81.1687C357.958 68.7106 352.739 65.1025 340.614 51.4304H332.36V56.3868C346.129 67.1242 352.725 73.3832 363.727 84.7089L373.201 81.1687Z" fill="#498C00" stroke="black" stroke-width="2"/>
<path d="M413.996 40.1667L412.496 1.5L417.496 2.83333L422.496 1.5L420.996 42.1667L422.496 83.5L417.496 82.1667L412.496 83.5L413.996 40.1667Z" fill="#498C00"/>
<path d="M413.996 40.1667L412.496 1.5L417.496 2.83333L422.496 1.5L420.996 42.1667M413.996 40.1667L412.496 83.5L417.496 82.1667L422.496 83.5L420.996 42.1667M413.996 40.1667L420.996 42.1667" stroke="black" stroke-width="2"/>
<path d="M415.496 8.5L386.496 10L387.496 5L386.496 0L416.996 1.5L447.996 0L446.996 5L447.996 10L415.496 8.5Z" fill="#498C00"/>
<path d="M415.496 8.5L386.496 10L387.496 5L386.496 0L416.996 1.5M415.496 8.5L447.996 10L446.996 5L447.996 0L416.996 1.5M415.496 8.5L416.996 1.5" stroke="black" stroke-width="2"/>
<path d="M415.496 83L386.496 84.5L387.496 79.5L386.496 74.5L416.996 76L447.996 74.5L446.996 79.5L447.996 84.5L417.571 83.0958L415.496 83Z" fill="#498C00"/>
<path d="M413.496 76L417.571 83.0958M417.571 83.0958L415.496 83L386.496 84.5L387.496 79.5L386.496 74.5L416.996 76L447.996 74.5L446.996 79.5L447.996 84.5L417.571 83.0958Z" stroke="black" stroke-width="2"/>
<path d="M468.737 81.6667L455.996 84C464.724 67.8314 471.158 55.1445 476.927 42C484.104 30.2903 488.426 17.1649 492.941 0L505.505 2.22524e-06C504.676 0.161447 490.37 40.2901 488.839 42C487.309 43.7099 467.242 81.4481 468.737 81.6667Z" fill="#498C00"/>
<path d="M488.839 42C487.309 43.7099 467.242 81.4481 468.737 81.6667L455.996 84C464.724 67.8314 471.158 55.1445 476.927 42M488.839 42C490.37 40.2901 504.676 0.161447 505.505 2.22524e-06L492.941 0C488.426 17.1649 484.104 30.2903 476.927 42M488.839 42C484.087 41.0323 481.68 40.99 476.927 42" stroke="black" stroke-width="2"/>
<path d="M528.569 81.6667L538.996 84C531.196 65.704 525.561 51.8928 520.3 37.3333C516.187 26.8295 512.377 14.9766 507.999 0H496.768C504.908 15.7895 511.627 27.9773 514.192 40.4444C521.018 52.8204 524.772 65.4129 528.569 81.6667Z" fill="#498C00"/>
<path d="M514.192 40.4444C521.018 52.8204 524.772 65.4129 528.569 81.6667L538.996 84C531.196 65.704 525.561 51.8928 520.3 37.3333M514.192 40.4444C511.627 27.9773 504.908 15.7895 496.768 0H507.999C512.377 14.9766 516.187 26.8295 520.3 37.3333M514.192 40.4444C516.087 38.2141 517.462 37.611 520.3 37.3333" stroke="black" stroke-width="2"/>
<path d="M525.891 52.8889C509.725 55.7455 488.446 55.6827 472.707 52.8889L466.917 63.7778C485.248 62.3215 513.244 61.6238 530.259 63.7778L525.891 52.8889Z" fill="#498C00" stroke="black" stroke-width="2"/>
<path d="M575.876 0.989738L581.996 0L575.876 20.61L568.867 57.8065L560.779 89L554.848 87.8859H549.996L560.779 56.6924L566.171 23.0176L571.563 0.179517L575.876 0.989738Z" fill="#498C00"/>
<path d="M560.779 56.6924L549.996 87.8859H554.848L560.779 89L568.867 57.8065M560.779 56.6924L566.171 23.0176M560.779 56.6924L564.554 58.9205L568.867 57.8065M568.867 57.8065L575.876 20.61M566.171 23.0176L571.563 0.179517L575.876 0.989738L581.996 0L575.876 20.61M566.171 23.0176L569.945 22.7138L575.876 20.61" stroke="black" stroke-width="2"/>
<path d="M613.416 81.4296L615.996 86.819L600.423 85.6581L573.588 87.2574L550.388 86.5757L549.26 80.9057L547.734 76.463L571.781 79.6128L595.776 77.2917L612.595 77.3059L613.416 81.4296Z" fill="#498C00"/>
<path d="M571.781 79.6128L547.734 76.463L549.26 80.9057L550.388 86.5757L573.588 87.2574M571.781 79.6128L595.776 77.2917M571.781 79.6128L571.493 83.5485L573.588 87.2574M573.588 87.2574L600.423 85.6581M595.776 77.2917L612.595 77.3059L613.416 81.4296L615.996 86.819L600.423 85.6581M595.776 77.2917L597.165 80.6816L600.423 85.6581" stroke="black" stroke-width="2"/>
</svg>
