<svg width="20" height="30" viewBox="0 0 20 30" fill="none" xmlns="http://www.w3.org/2000/svg">
<path d="M1 15.2048C1.76384 7.89205 3.4161 6.63303 6.5 4.70478C11.5052 5.0015 15.1211 3.54588 17.101 2.3726C17.5926 1.87893 18.0938 1.51895 18.5 1.20478C19.2646 0.61347 18.7507 1.39504 17.101 2.3726C15.5571 3.92323 14.1088 6.79283 16 13.7048C15.8684 16.2829 15.2967 17.7097 13 20.2048L1 27.7048V15.2048Z" fill="#498C00"/>
<path d="M6.5 4.70478C3.4161 6.63303 1.76384 7.89205 1 15.2048V27.7048L13 20.2048C15.2967 17.7097 15.8684 16.2829 16 13.7048C13.5067 4.59229 16.8178 2.50578 18.5 1.20478C20.1822 -0.0962222 15.6755 5.24873 6.5 4.70478Z" stroke="black" stroke-width="2"/>
<path d="M10.7514 10.3647C11.1158 9.94969 11.0749 9.31785 10.6599 8.95341C10.2449 8.58896 9.61308 8.62992 9.24864 9.04489L10.7514 10.3647ZM1.94982 28.0176C3.96883 21.887 6.18847 17.4522 7.89324 14.5614C8.74572 13.1158 9.4697 12.0559 9.97582 11.3627C10.2289 11.0161 10.4275 10.7613 10.5605 10.5957C10.627 10.5129 10.677 10.4525 10.7093 10.4141C10.7255 10.3949 10.7372 10.3812 10.7442 10.3729C10.7478 10.3688 10.7501 10.3661 10.7513 10.3647C10.7519 10.364 10.7522 10.3637 10.7522 10.3637C10.7522 10.3637 10.7522 10.3637 10.752 10.3639C10.752 10.364 10.7518 10.3642 10.7518 10.3642C10.7516 10.3644 10.7514 10.3647 10 9.70477C9.24864 9.04489 9.2484 9.04516 9.24814 9.04545C9.24803 9.04558 9.24775 9.0459 9.24753 9.04615C9.24708 9.04666 9.24656 9.04725 9.24597 9.04793C9.24478 9.04929 9.2433 9.05099 9.24152 9.05304C9.23796 9.05714 9.23322 9.06261 9.22733 9.06947C9.21555 9.08318 9.19914 9.10243 9.17828 9.12724C9.13657 9.17687 9.07707 9.24877 9.00119 9.34324C8.84942 9.53218 8.63213 9.81142 8.36058 10.1833C7.81747 10.9271 7.05738 12.0415 6.17048 13.5455C4.39649 16.5537 2.11614 21.1189 0.050184 27.392L1.94982 28.0176Z" fill="black"/>
</svg>
