<svg width="449" height="556" viewBox="0 0 449 556" fill="none" xmlns="http://www.w3.org/2000/svg">
<path d="M264.196 555H163.227L166.472 551.759L178.115 502.951L180.024 428.023L186.513 401.522V387.604L182.505 374.639L149.485 328.691L131.544 276.833H142.041L154.829 320.493L170.862 336.699L189.185 348.329L170.862 284.84L167.236 242.896L182.505 238.892L189.185 276.833L202.928 306.194L225.45 330.979H234.611L258.279 288.081L262.669 249.378H287.863L279.465 274.545L273.548 314.201L307.904 270.541L283.091 317.824L267.44 340.321L242.246 391.608L238.62 502.951L246.636 522.97L264.196 555Z" fill="#B32500" stroke="black"/>
<path d="M169.144 348.138L155.974 342.228C152.666 342.228 145.324 341.656 142.423 339.368C138.797 336.508 136.697 338.224 127.154 332.314C117.61 326.403 124.291 318.586 120.664 314.201C117.038 309.816 116.656 314.964 107.494 314.201C98.3329 313.439 86.1174 345.469 82.1092 332.314C78.101 319.158 77.3376 301.046 70.4664 304.478C63.5952 307.91 45.6538 297.042 31.7205 286.175C17.7873 275.307 23.7041 270.922 14.3517 260.436C4.99922 249.95 5.1901 217.729 1.94537 203.239C-1.29936 188.75 4.0449 192.372 14.3517 186.462C24.6585 180.551 4.61755 176.166 7.48051 171.781C10.3435 167.396 31.7205 159.961 20.4594 151.953C9.19824 143.945 16.4512 126.214 20.4594 113.44C24.4675 100.666 23.3224 104.67 20.4594 100.285C17.5964 95.9001 18.7416 85.0327 23.3224 67.4923C27.9032 49.9519 37.6373 55.2903 42.0273 51.4772C45.5392 48.4267 70.2119 42.4528 82.1092 39.8471C88.7895 38.8939 102.494 36.9873 103.868 36.9873C105.586 36.9873 120.092 32.4116 120.473 29.7424C120.779 27.607 138.224 27.3274 145.859 22.6881L178.115 19.2563L203.309 29.7424L220.869 19.2563H263.432H294.353L317.447 32.9835H341.306L364.591 36.9873L388.641 73.7839L390.549 96.6627L435.212 142.229L421.851 179.979L448 214.488C445.073 223.703 439.22 242.438 439.22 243.659V260.436L427.959 270.541L421.851 286.556H410.59L390.549 309.435L351.803 302.953L334.816 316.68L322.028 332.314L308.286 336.699L299.124 345.85H284.809L272.785 339.749L253.889 345.85L245.109 342.228L229.84 348.138L207.318 345.85L197.202 348.138L181.551 345.85L169.144 348.138Z" fill="#498C00" stroke="black"/>
</svg>
