<svg width="64" height="72" viewBox="0 0 64 72" fill="none" xmlns="http://www.w3.org/2000/svg">
<g clip-path="url(#clip0_133_4313)">
<path d="M-8 9L-3.87703 5H29.6221L66.2134 6.5L113.627 5L162.588 6.5H222.886L249.943 5.75L277 5V19L263.085 21L220.309 19L162.588 21L113.627 19L66.2134 21L29.6221 19L-8 21V14V9Z" fill="#498C00" stroke="black"/>
<path d="M35.5 2.5V16.8858" stroke="black"/>
<path d="M0 33.7273L4 37.9697H36.5L72 36.3788L118 37.9697L165.5 36.3788H224L250.25 37.1743L276.5 37.9697V23.1212L263 21L221.5 23.1212L165.5 21L118 23.1212L72 21L36.5 23.1212L0 21V28.4243V33.7273Z" fill="#498C00" stroke="black"/>
<path d="M36 38.5V23.2423" stroke="black"/>
<path d="M0 43.5L4 39.5H36.5L72 41L118 39.5L165.5 41H224L250.25 40.25L276.5 39.5V53.5L263 55.5L221.5 53.5L165.5 55.5L118 53.5L72 55.5L36.5 53.5L0 55.5V48.5V43.5Z" fill="#498C00" stroke="black"/>
<path d="M36 39V53.3858" stroke="black"/>
<path d="M0.5 70.2273L4.5 74.4697H37L72.5 72.8788L118.5 74.4697L166 72.8788H224.5L250.75 73.6743L277 74.4697V59.6212L263.5 57.5L222 59.6212L166 57.5L118.5 59.6212L72.5 57.5L37 59.6212L0.5 57.5V64.9243V70.2273Z" fill="#498C00" stroke="black"/>
<path d="M36.5 75V59.7423" stroke="black"/>
</g>
<path d="M23.4469 44.6702L30.8239 42.5L33.5525 39.9976L37 38L44 33.5L43.034 24.1203L39.9815 19.2512L30.8239 16.8167L22.7843 18.4523L15.0525 23.6334L14.035 20.225L12 17.7905L21.6463 13.8953L31.8414 10L43.034 15.356L50.6653 21.6857L50 34.5L42.4557 41.7455L33.5525 45.6407L23.4469 51L24.4645 48.0786L23.4469 44.6702Z" fill="white"/>
<path d="M30.8239 16.8167L22.7843 18.4523L15.0525 23.6334L14.035 20.225L12 17.7905L21.6463 13.8953L31.8414 10M30.8239 16.8167L39.9815 19.2512L43.034 24.1203M30.8239 16.8167L31.8414 13.8953V10M43.034 24.1203L46.5953 23.6334L50.6653 21.6857M43.034 24.1203L44 33.5L37 38M37 38L38.707 40.497L42.4557 41.7455M37 38L33.5525 39.9976L30.8239 42.5L23.4469 44.6702L24.4645 48.0786L23.4469 51L33.5525 45.6407L42.4557 41.7455M42.4557 41.7455L50 34.5L50.6653 21.6857M50.6653 21.6857L43.034 15.356L31.8414 10" stroke="black"/>
<path d="M28.5 56.3684L33 56L32.5909 60.0526L33 63L28.5 62.6316L24 63L24.4091 59.6842L24 56L28.5 56.3684Z" fill="white" stroke="black"/>
<defs>
<clipPath id="clip0_133_4313">
<rect width="64" height="72" fill="white"/>
</clipPath>
</defs>
</svg>
