<svg width="354" height="200" viewBox="0 0 354 200" fill="none" xmlns="http://www.w3.org/2000/svg">
<path d="M1.70972 28.4C11.172 18.9737 15.9414 13.2425 23.226 2C34.2543 3.33625 40.4378 3.02909 51.4661 2C56.0034 11.1016 59.2573 13.6749 65.5862 16.4L51.4661 28.4C50.3743 23.2562 49.4062 20.4631 44.0699 16.4C38.2242 13.3809 34.5651 12.863 26.5879 16.4C21.5864 19.2689 19.9019 21.8424 19.1917 28.4C16.4759 38.9722 16.2898 44.5017 17.1746 54L26.5879 65.2C33.4147 68.2704 37.243 67.6019 44.0699 65.2C49.0138 62.6387 50.8583 60.2439 51.4661 53.2L44.0699 47.6L63.5691 41.2L70.9653 50.6286L72.9824 53.2C64.3214 63.6426 60.1804 69.8633 54.8281 82C42.6933 79.8016 35.9853 79.2291 24.5708 82C17.7663 70.5233 13.037 64.5912 1.70972 55.6C3.31247 44.7655 3.27887 38.8172 1.70972 28.4Z" fill="#498C00"/>
<path d="M1.70972 28.4C11.172 18.9737 15.9414 13.2425 23.226 2M1.70972 28.4C3.27887 38.8172 3.31247 44.7655 1.70972 55.6M1.70972 28.4H19.1917M23.226 2C34.2543 3.33625 40.4378 3.02909 51.4661 2M23.226 2L26.5879 16.4M51.4661 2C56.0034 11.1016 59.2573 13.6749 65.5862 16.4L51.4661 28.4C50.3743 23.2562 49.4062 20.4631 44.0699 16.4M51.4661 2L44.0699 16.4M44.0699 16.4C38.2242 13.3809 34.5651 12.863 26.5879 16.4M26.5879 16.4C21.5864 19.2689 19.9019 21.8424 19.1917 28.4M19.1917 28.4C16.4759 38.9722 16.2898 44.5017 17.1746 54M17.1746 54L26.5879 65.2M17.1746 54L1.70972 55.6M26.5879 65.2C33.4147 68.2704 37.243 67.6019 44.0699 65.2M26.5879 65.2L24.5708 82M44.0699 65.2C49.0138 62.6387 50.8583 60.2439 51.4661 53.2M44.0699 65.2L54.8281 82M51.4661 53.2L44.0699 47.6L63.5691 41.2L70.9653 50.6286M51.4661 53.2L70.9653 50.6286M54.8281 82C60.1804 69.8633 64.3214 63.6426 72.9824 53.2L70.9653 50.6286M54.8281 82C42.6933 79.8016 35.9853 79.2291 24.5708 82M24.5708 82C17.7663 70.5233 13.037 64.5912 1.70972 55.6" stroke="black" stroke-width="2"/>
<path d="M101.951 82.6944L88.9825 85C97.866 69.0239 104.415 56.488 110.288 43.5C117.592 31.9297 121.992 18.9605 126.587 2L139.375 2C138.532 2.15953 123.97 41.8105 122.412 43.5C120.854 45.1896 100.429 82.4785 101.951 82.6944Z" fill="#498C00"/>
<path d="M122.412 43.5C120.854 45.1896 100.429 82.4785 101.951 82.6944L88.9825 85C97.866 69.0239 104.415 56.488 110.288 43.5M122.412 43.5C123.97 41.8105 138.532 2.15953 139.375 2L126.587 2C121.992 18.9605 117.592 31.9297 110.288 43.5M122.412 43.5C117.575 42.5439 115.125 42.502 110.288 43.5" stroke="black" stroke-width="2"/>
<path d="M162.852 82.6944L173.465 85C165.525 66.9218 159.79 53.275 154.434 38.8889C150.248 28.5101 146.371 16.7983 141.914 2H130.482C138.768 17.6015 145.607 29.6443 148.218 41.963C155.166 54.1916 158.986 66.6341 162.852 82.6944Z" fill="#498C00"/>
<path d="M148.218 41.963C155.166 54.1916 158.986 66.6342 162.852 82.6944L173.465 85C165.525 66.9218 159.79 53.275 154.434 38.8889M148.218 41.963C145.607 29.6443 138.768 17.6015 130.482 2H141.914C146.371 16.7983 150.248 28.5101 154.434 38.8889M148.218 41.963C150.147 39.7592 151.546 39.1632 154.434 38.8889" stroke="black" stroke-width="2"/>
<path d="M160.125 54.2593C143.671 57.0819 122.012 57.0198 105.992 54.2593L100.099 65.0185C118.757 63.5796 147.253 62.8902 164.572 65.0185L160.125 54.2593Z" fill="#498C00" stroke="black" stroke-width="2"/>
<path d="M192.107 2C197.853 4.68012 200.846 3.65873 206.2 2C211.849 16.7915 216.875 28.3663 223.171 38.5C226.253 49.6777 230.425 59.1349 235.325 69.7645C237.941 60.6746 240.088 52.3773 242.029 44C246.864 32.0208 251.555 18.9022 258.61 2C263.793 3.72428 266.556 3.42842 271.382 2C270.477 15.2114 270.39 25.9284 271.535 36C271.809 50.869 272.54 64.7837 274.465 83.485C269.255 81.7191 266.527 82.2672 261.693 83.485C263.914 67.1492 263.283 56.1597 261.693 43.0338C261.068 37.8834 260.296 32.404 259.491 26.1437C256.703 33.0349 254.438 39.0977 252.497 45C247.013 56.8285 244.647 68.5603 242.755 86C238.105 83.5911 235.427 83.2948 230.423 86C225.793 69.6848 221.708 58.5946 215.651 46.5C212.736 40.6812 209.366 34.63 205.259 27.6527C204.379 32.2927 203.718 36.5186 203.234 40.5C201.346 56.0307 202.147 67.8416 203.117 86C198.399 83.6113 195.686 82.5339 189.465 86C190.765 69.7037 191.569 56.9494 191.974 44C192.369 31.3481 192.383 18.5099 192.107 2Z" fill="#498C00"/>
<path d="M206.2 2C200.846 3.65873 197.853 4.68012 192.107 2C192.383 18.5099 192.369 31.3481 191.974 44M206.2 2C206.2 2 203.117 26.1437 205.259 27.6527M206.2 2C211.849 16.7915 216.875 28.3663 223.171 38.5M242.755 86C238.105 83.5911 235.427 83.2948 230.423 86M242.755 86C244.647 68.5603 247.013 56.8285 252.497 45M242.755 86C234.63 67.7238 227.716 54.9824 223.171 38.5M230.423 86C235.461 69.9774 238.997 57.0864 242.029 44M230.423 86C225.793 69.6848 221.708 58.5946 215.651 46.5M205.259 27.6527C204.379 32.2927 203.718 36.5186 203.234 40.5M205.259 27.6527C209.366 34.63 212.736 40.6812 215.651 46.5M258.61 2C263.793 3.72428 266.556 3.42842 271.382 2C270.477 15.2114 270.39 25.9284 271.535 36M258.61 2C260.152 12.1708 260.572 17.5992 259.491 26.1437M258.61 2C251.555 18.9022 246.864 32.0208 242.029 44M259.491 26.1437C260.296 32.404 261.068 37.8834 261.693 43.0338M259.491 26.1437C256.703 33.0349 254.438 39.0977 252.497 45M191.974 44C191.569 56.9494 190.765 69.7037 189.465 86C195.686 82.5339 198.399 83.6113 203.117 86C202.147 67.8416 201.346 56.0307 203.234 40.5M191.974 44C197.023 40.7812 199.281 40.6057 203.234 40.5M261.693 43.0338C263.283 56.1597 263.914 67.1492 261.693 83.485C266.527 82.2672 269.255 81.7191 274.465 83.485C272.54 64.7837 271.809 50.869 271.535 36M261.693 43.0338C265.687 38.925 267.826 37.417 271.535 36M242.029 44C247.141 43.162 249.461 43.3693 252.497 45M215.651 46.5C218.85 44.1779 220.524 42.5044 223.171 38.5" stroke="black" stroke-width="2"/>
<path d="M352.045 2C332.365 4.37828 321.221 4.72229 300.968 2L301.757 13.7895C320.237 11.5418 330.399 11.772 348.308 13.7895L352.045 2Z" fill="#498C00"/>
<path d="M348.308 36.6316C329.614 39.0102 319.707 37.691 301.757 36.6316L304.082 49.1579C322.811 48.2016 333.318 48.1849 352.045 49.1579L348.308 36.6316Z" fill="#498C00"/>
<path d="M352.045 72.7368C329.751 74.8562 317.13 76.141 301.757 72.7368V86C319.936 81.9346 330.129 83.9987 348.308 86L352.045 72.7368Z" fill="#498C00"/>
<path d="M352.045 2C332.365 4.37828 321.221 4.72229 300.968 2L301.757 13.7895C320.237 11.5418 330.399 11.772 348.308 13.7895L352.045 2Z" stroke="black" stroke-width="2"/>
<path d="M348.308 36.6316C329.614 39.0102 319.707 37.691 301.757 36.6316L304.082 49.1579C322.811 48.2016 333.318 48.1849 352.045 49.1579L348.308 36.6316Z" stroke="black" stroke-width="2"/>
<path d="M352.045 72.7368C329.751 74.8562 317.13 76.141 301.757 72.7368V86C319.936 81.9346 330.129 83.9987 348.308 86L352.045 72.7368Z" stroke="black" stroke-width="2"/>
<path d="M290.465 83.0526C291.324 54.0697 290.465 5.68421 290.465 5.68421L300.431 2C301.226 35.9561 301.062 54.1103 300.431 86L290.465 83.0526Z" fill="#498C00" stroke="black" stroke-width="2"/>
<path d="M44.1306 198.176C37.6736 191.641 32.307 188.507 20.8841 183.48L19.7569 178.888C20.4128 169.476 19.2558 164.062 13.6697 154.088H29.7018C30.9146 163.61 32.8132 168.636 38.5194 177.051C48.8584 179.87 56.2877 178.175 56.1547 177.051C56.0217 175.927 56.5458 175.651 56.5458 175.651C62.5398 168.495 63.5874 163.762 62.5675 154.088H81.806C76.4488 165.572 74.2897 172.008 73.79 183.48C65.3007 188.064 61.217 191.122 56.1547 198.176C51.9438 195.001 49.4914 193.818 44.1306 198.176Z" fill="#498C00"/>
<path d="M73.79 183.48C65.3007 188.064 61.217 191.122 56.1547 198.176C51.9438 195.001 49.4914 193.818 44.1306 198.176C37.6736 191.641 32.307 188.507 20.8841 183.48L19.7569 178.888M73.79 183.48C74.2897 172.008 76.4488 165.572 81.806 154.088H62.5675C63.5874 163.762 62.5398 168.495 56.5458 175.651M73.79 183.48L56.5458 175.651M38.5194 177.051C48.8584 179.87 56.2877 178.175 56.1547 177.051C56.0217 175.927 56.5458 175.651 56.5458 175.651M38.5194 177.051C32.8132 168.636 30.9146 163.61 29.7018 154.088H13.6697C19.2558 164.062 20.4128 169.476 19.7569 178.888M38.5194 177.051L19.7569 178.888" stroke="black" stroke-width="2"/>
<path d="M20.7992 124.696C20.0209 137.417 18.5109 143.882 13.6697 154.088H29.5132C30.9088 144.134 32.7591 139.078 38.2271 131.126C46.842 124.338 50.3749 125.4 55.6549 131.126C62.1501 139.848 62.4248 144.944 61.9923 154.088H81.0044L73.0827 124.696C65.0886 119.549 61.1809 116.376 55.6549 110C49.3038 111.007 46.8262 110.933 43.7723 110C36.4478 117.597 30.8714 120.199 20.7992 124.696Z" fill="#498C00"/>
<path d="M20.7992 124.696C20.0209 137.417 18.5109 143.882 13.6697 154.088H29.5132C30.9088 144.134 32.7591 139.078 38.2271 131.126M20.7992 124.696C30.8714 120.199 36.4478 117.597 43.7723 110C46.8262 110.933 49.3038 111.006 55.6549 110C61.1809 116.376 65.0886 119.549 73.0827 124.696M20.7992 124.696C26.4355 128.325 30.2924 129.689 38.2271 131.126M73.0827 124.696C76.1763 136.174 77.9108 142.61 81.0044 154.088H61.9923C62.4248 144.944 62.1501 139.848 55.6549 131.126M73.0827 124.696C64.8527 125.284 61.164 126.864 55.6549 131.126M55.6549 131.126C50.3749 125.4 46.842 124.338 38.2271 131.126" stroke="black" stroke-width="2"/>
<path d="M148.868 196C141.657 194.215 137.608 194.241 130.399 196C126.382 177.696 123.589 167.783 114.102 153C109.677 135.143 106.306 125.619 97.806 110C104.525 112.455 107.852 112.445 113.016 110C115.529 124.451 119.687 132.31 128.123 146.239C130.617 160.622 134.245 169.913 139.626 179.974C145.128 169.498 148.758 160.066 152.715 146.239C162.2 132.709 165.619 124.746 168.967 110C175.278 112.21 178.974 112.171 185.806 110C176.924 123.592 173.074 131.265 170.705 145.157C158.405 163.095 152.892 173.855 148.868 196Z" fill="#498C00"/>
<path d="M130.399 196C137.608 194.241 141.657 194.215 148.868 196M130.399 196C126.382 177.696 123.589 167.783 114.102 153M130.399 196C141.79 177.391 146.898 166.564 152.715 146.239M148.868 196C138.07 177.794 131.839 167.667 128.123 146.239M148.868 196C152.892 173.855 158.405 163.095 170.705 145.157M114.102 153C109.677 135.143 106.306 125.619 97.806 110C104.525 112.455 107.852 112.445 113.016 110C115.529 124.451 119.687 132.31 128.123 146.239M114.102 153L128.123 146.239M152.715 146.239C162.2 132.709 165.619 124.746 168.967 110C175.278 112.21 178.974 112.171 185.806 110C176.924 123.592 173.074 131.265 170.705 145.157M152.715 146.239L170.705 145.157" stroke="black" stroke-width="2"/>
<path d="M265.586 110C245.203 112.463 233.661 112.82 212.684 110L213.502 122.211C232.642 119.883 243.166 120.121 261.715 122.211L265.586 110Z" fill="#498C00"/>
<path d="M261.715 145.868C242.353 148.332 232.093 146.966 213.502 145.868L215.91 158.842C235.307 157.852 246.19 157.834 265.586 158.842L261.715 145.868Z" fill="#498C00"/>
<path d="M265.586 183.263C242.495 185.458 229.424 186.789 213.502 183.263V197C232.33 192.789 242.887 194.927 261.715 197L265.586 183.263Z" fill="#498C00"/>
<path d="M265.586 110C245.203 112.463 233.661 112.82 212.684 110L213.502 122.211C232.642 119.883 243.166 120.121 261.715 122.211L265.586 110Z" stroke="black" stroke-width="2"/>
<path d="M261.715 145.868C242.353 148.332 232.093 146.966 213.502 145.868L215.91 158.842C235.307 157.852 246.19 157.834 265.586 158.842L261.715 145.868Z" stroke="black" stroke-width="2"/>
<path d="M265.586 183.263C242.495 185.458 229.424 186.789 213.502 183.263V197C232.33 192.789 242.887 194.927 261.715 197L265.586 183.263Z" stroke="black" stroke-width="2"/>
<path d="M201.806 193.947C202.696 163.929 201.806 113.816 201.806 113.816L212.128 110C212.952 145.169 212.782 163.971 212.128 197L201.806 193.947Z" fill="#498C00" stroke="black" stroke-width="2"/>
<path d="M290.496 193.76L282.623 197.787C282.623 197.787 280.29 199.398 282.623 193.76C283.918 190.632 284.91 165.984 285.089 144.632C285.233 127.507 284.855 112.501 283.692 112.416L292.793 110C292.885 123.039 292.807 133.736 292.58 143.826C292.345 154.302 291.95 164.124 291.421 175.236C291.147 180.977 290.838 187.063 290.496 193.76Z" fill="#498C00"/>
<path d="M285.089 144.632C285.233 127.507 284.855 112.501 283.692 112.416L292.793 110C292.885 123.039 292.807 133.736 292.58 143.826M285.089 144.632C284.91 165.984 283.918 190.632 282.623 193.76C280.29 199.398 282.623 197.787 282.623 197.787L290.496 193.76C290.838 187.063 291.147 180.977 291.421 175.236M285.089 144.632C288.187 143.706 289.821 143.556 292.58 143.826M292.58 143.826C292.345 154.302 291.95 164.124 291.421 175.236M285.089 176.847C282.567 177.539 287.406 175.673 291.421 175.236" stroke="black" stroke-width="2"/>
<path d="M292.813 110.776C306.16 113.521 313.731 114.33 327.423 114.244C331.355 122.662 334.048 127.077 340.085 134.183C336.405 140.107 335.32 143.549 334.176 149.787C329.458 153.294 326.957 155.333 323.202 159.323C318.736 160.332 316.731 161.259 312.988 162.791C301.023 162.502 296.494 162.313 292.729 161.924L292.813 155.856C300.93 156.918 305.089 156.489 312.229 154.989C317.908 152.013 321.306 150.663 324.891 144.586C328.683 141.223 330.061 138.985 330.8 134.183C329.726 129.295 328.568 126.62 324.806 122.046C313.841 119.762 306.911 118.778 292.729 117.712L292.813 110.776Z" fill="#498C00"/>
<path d="M327.423 114.244C313.731 114.33 306.16 113.521 292.813 110.776L292.729 117.712C306.911 118.778 313.841 119.762 324.806 122.046M327.423 114.244L324.806 122.046M327.423 114.244C331.355 122.662 334.048 127.077 340.085 134.183M324.806 122.046C328.568 126.62 329.726 129.295 330.8 134.183M330.8 134.183H340.085M330.8 134.183C330.061 138.985 328.683 141.223 324.891 144.586M340.085 134.183C336.405 140.107 335.32 143.549 334.176 149.787M324.891 144.586L334.176 149.787M324.891 144.586C321.306 150.663 317.908 152.013 312.229 154.989M334.176 149.787C329.458 153.294 326.957 155.333 323.202 159.323C318.736 160.332 316.731 161.259 312.988 162.791M312.229 154.989C305.089 156.489 300.93 156.918 292.813 155.856L292.729 161.924C296.494 162.313 301.023 162.502 312.988 162.791M312.229 154.989L312.988 162.791" stroke="black" stroke-width="2"/>
<path d="M334.651 193.316C319.005 180.528 313.648 176.825 301.202 162.791H292.729V167.878C306.862 178.9 313.633 185.324 324.926 196.95L334.651 193.316Z" fill="#498C00" stroke="black" stroke-width="2"/>
</svg>
