<svg width="609" height="252" viewBox="0 0 609 252" fill="none" xmlns="http://www.w3.org/2000/svg">
<path d="M77.5686 6.14706C52.9542 9.12158 39.0166 9.55183 13.6859 6.14706L14.6729 20.8922C37.7858 18.0809 50.4949 18.3689 72.8943 20.8922L77.5686 6.14706Z" fill="#498C00"/>
<path d="M72.8943 49.4608C49.5134 52.4358 37.123 50.7859 14.6729 49.4608L17.5811 65.1275C41.0051 63.9314 54.1464 63.9106 77.5686 65.1275L72.8943 49.4608Z" fill="#498C00"/>
<path d="M77.5686 94.6177C49.6846 97.2683 33.8998 98.8753 14.6729 94.6177V111.206C37.4098 106.121 50.1574 108.703 72.8943 111.206L77.5686 94.6177Z" fill="#498C00"/>
<path d="M77.5686 6.14706C52.9542 9.12158 39.0166 9.55183 13.6859 6.14706L14.6729 20.8922C37.7858 18.0809 50.4949 18.3689 72.8943 20.8922L77.5686 6.14706Z" stroke="black" stroke-width="2"/>
<path d="M72.8943 49.4608C49.5134 52.4358 37.123 50.7859 14.6729 49.4608L17.5811 65.1275C41.0051 63.9314 54.1464 63.9106 77.5686 65.1275L72.8943 49.4608Z" stroke="black" stroke-width="2"/>
<path d="M77.5686 94.6177C49.6846 97.2683 33.8998 98.8753 14.6729 94.6177V111.206C37.4098 106.121 50.1574 108.703 72.8943 111.206L77.5686 94.6177Z" stroke="black" stroke-width="2"/>
<path d="M2 107.52C3.07437 71.2707 2 10.7549 2 10.7549L14.4649 6.14706C15.4598 48.616 15.2544 71.3214 14.4649 111.206L2 107.52Z" fill="#498C00" stroke="black" stroke-width="2"/>
<path d="M93.5686 41.4431C105.559 29.4986 111.602 22.2362 120.833 7.9902C134.808 9.68345 142.643 9.29423 156.618 7.9902C162.367 19.5234 166.49 22.7841 174.51 26.2373L156.618 41.4431C155.234 34.9251 154.008 31.3858 147.246 26.2373C139.838 22.4116 135.202 21.7554 125.093 26.2373C118.755 29.8727 116.621 33.1337 115.721 41.4431C112.28 54.8398 112.044 61.8466 113.165 73.8824L125.093 88.0745C133.744 91.9652 138.595 91.1181 147.246 88.0745C153.51 84.829 155.848 81.7944 156.618 72.8686L147.246 65.7726L171.954 57.6628L181.326 69.6102L183.882 72.8686C172.907 86.1011 167.66 93.9837 160.878 109.363C145.501 106.577 137.001 105.852 122.537 109.363C113.915 94.82 107.922 87.3031 93.5686 75.9098C95.5995 62.1808 95.557 54.6433 93.5686 41.4431Z" fill="#498C00"/>
<path d="M93.5686 41.4431C105.559 29.4986 111.602 22.2362 120.833 7.9902M93.5686 41.4431C95.557 54.6433 95.5995 62.1808 93.5686 75.9098M93.5686 41.4431H115.721M120.833 7.9902C134.808 9.68345 142.643 9.29423 156.618 7.9902M120.833 7.9902L125.093 26.2373M156.618 7.9902C162.367 19.5234 166.49 22.7841 174.51 26.2373L156.618 41.4431C155.234 34.9251 154.008 31.3858 147.246 26.2373M156.618 7.9902L147.246 26.2373M147.246 26.2373C139.838 22.4116 135.202 21.7554 125.093 26.2373M125.093 26.2373C118.755 29.8727 116.621 33.1337 115.721 41.4431M115.721 41.4431C112.28 54.8398 112.044 61.8466 113.165 73.8824M113.165 73.8824L125.093 88.0745M113.165 73.8824L93.5686 75.9098M125.093 88.0745C133.744 91.9652 138.595 91.1181 147.246 88.0745M125.093 88.0745L122.537 109.363M147.246 88.0745C153.51 84.829 155.848 81.7944 156.618 72.8686M147.246 88.0745L160.878 109.363M156.618 72.8686L147.246 65.7726L171.954 57.6628L181.326 69.6102M156.618 72.8686L181.326 69.6102M160.878 109.363C167.66 93.9837 172.907 86.1011 183.882 72.8686L181.326 69.6102M160.878 109.363C145.501 106.577 137.001 105.852 122.537 109.363M122.537 109.363C113.915 94.82 107.922 87.3031 93.5686 75.9098" stroke="black" stroke-width="2"/>
<path d="M211.36 109.891L201.218 115.079C201.218 115.079 198.212 117.153 201.218 109.891C202.886 105.862 204.164 74.1131 204.395 46.609C204.581 24.5503 204.093 5.22178 202.595 5.11227L214.318 2C214.437 18.7959 214.336 32.5742 214.044 45.5716C213.741 59.0654 213.232 71.7176 212.551 86.0309C212.198 93.4259 211.8 101.264 211.36 109.891Z" fill="#498C00"/>
<path d="M204.395 46.609C204.581 24.5503 204.093 5.22178 202.595 5.11227L214.318 2C214.437 18.7959 214.336 32.5742 214.044 45.5716M204.395 46.609C204.164 74.1131 202.886 105.862 201.218 109.891C198.212 117.153 201.218 115.079 201.218 115.079L211.36 109.891C211.8 101.264 212.198 93.4259 212.551 86.0309M204.395 46.609C208.384 45.4169 210.49 45.2241 214.044 45.5716M214.044 45.5716C213.741 59.0654 213.232 71.7176 212.551 86.0309M204.395 88.1057C201.146 88.9973 207.378 86.5937 212.551 86.0309" stroke="black" stroke-width="2"/>
<path d="M214.344 3C231.536 6.5353 241.289 7.57731 258.925 7.46667C263.99 18.3097 267.459 23.9965 275.235 33.15C270.495 40.781 269.097 45.2147 267.624 53.25C261.546 57.7676 258.324 60.3941 253.488 65.5333C247.736 66.8331 245.153 68.0266 240.332 70C224.919 69.6283 219.086 69.384 214.235 68.8833L214.344 61.0667C224.799 62.4345 230.156 61.8822 239.353 59.95C246.668 56.1175 251.046 54.3776 255.663 46.55C260.548 42.2178 262.323 39.3362 263.274 33.15C261.891 26.8542 260.399 23.4078 255.554 17.5167C241.429 14.5749 232.503 13.3068 214.235 11.9333L214.344 3Z" fill="#498C00"/>
<path d="M258.925 7.46667C241.289 7.57731 231.536 6.5353 214.344 3L214.235 11.9333C232.503 13.3068 241.429 14.5749 255.554 17.5167M258.925 7.46667L255.554 17.5167M258.925 7.46667C263.99 18.3097 267.459 23.9965 275.235 33.15M255.554 17.5167C260.399 23.4078 261.891 26.8542 263.274 33.15M263.274 33.15H275.235M263.274 33.15C262.323 39.3362 260.548 42.2178 255.663 46.55M275.235 33.15C270.495 40.781 269.097 45.2147 267.624 53.25M255.663 46.55L267.624 53.25M255.663 46.55C251.046 54.3776 246.668 56.1175 239.353 59.95M267.624 53.25C261.546 57.7676 258.324 60.3941 253.488 65.5333C247.736 66.8331 245.153 68.0266 240.332 70M239.353 59.95C230.156 61.8822 224.799 62.4345 214.344 61.0667L214.235 68.8833C219.086 69.384 224.919 69.6283 240.332 70M239.353 59.95L240.332 70" stroke="black" stroke-width="2"/>
<path d="M268.235 109.319C248.081 92.8475 241.181 88.0769 225.149 70H214.235V76.5532C232.44 90.75 241.162 99.0254 255.708 114L268.235 109.319Z" fill="#498C00" stroke="black" stroke-width="2"/>
<path d="M307.362 107.417L291.235 110.284C302.283 90.417 310.427 74.8279 317.73 58.6765C326.813 44.2881 332.284 28.1601 337.999 7.06863L353.902 7.06864C352.853 7.26701 334.745 56.5754 332.807 58.6765C330.87 60.7775 305.47 107.149 307.362 107.417Z" fill="#498C00"/>
<path d="M332.807 58.6765C330.87 60.7775 305.47 107.149 307.362 107.417L291.235 110.284C302.283 90.417 310.427 74.8279 317.73 58.6765M332.807 58.6765C334.745 56.5754 352.853 7.26701 353.902 7.06864L337.999 7.06863C332.284 28.1601 326.813 44.2881 317.73 58.6765M332.807 58.6765C326.792 57.4875 323.745 57.4354 317.73 58.6765" stroke="black" stroke-width="2"/>
<path d="M383.097 107.417L396.294 110.284C386.421 87.803 379.288 70.8323 372.629 52.9423C367.423 40.0356 362.601 25.4712 357.059 7.06863H342.843C353.147 26.4701 361.652 41.446 364.898 56.7651C373.539 71.9722 378.29 87.4452 383.097 107.417Z" fill="#498C00"/>
<path d="M364.898 56.7651C373.539 71.9722 378.29 87.4452 383.097 107.417L396.294 110.284C386.421 87.803 379.288 70.8323 372.629 52.9423M364.898 56.7651C361.652 41.446 353.147 26.4701 342.843 7.06863H357.059C362.601 25.4712 367.423 40.0356 372.629 52.9423M364.898 56.7651C367.297 54.0246 369.037 53.2835 372.629 52.9423" stroke="black" stroke-width="2"/>
<path d="M379.706 72.0563C359.243 75.5664 332.31 75.4892 312.387 72.0563L305.059 85.4361C328.262 83.6467 363.698 82.7894 385.235 85.4361L379.706 72.0563Z" fill="#498C00" stroke="black" stroke-width="2"/>
<path d="M485.498 14.978C490.724 16.5799 493.738 16.9021 499.481 14.978C497 28.1109 497.909 33.8859 498.947 44.5886C495.534 69.3395 496.31 82.6207 497.836 106.277C502.91 116.725 501.68 115.234 485.498 87.3595C487.713 73.4538 488.411 65.6016 485.498 51.1688C487.868 37.4772 488.972 29.7591 485.498 14.978Z" fill="#498C00"/>
<path d="M485.498 51.1688C487.868 37.4772 488.972 29.7591 485.498 14.978C490.724 16.5799 493.738 16.9021 499.481 14.978C497 28.1109 497.909 33.8859 498.947 44.5886M485.498 51.1688C488.411 65.6016 487.713 73.4538 485.498 87.3595C501.68 115.234 502.91 116.725 497.836 106.277C496.31 82.6207 495.534 69.3395 498.947 44.5886M485.498 51.1688C491.834 47.5039 494.635 46.2065 498.947 44.5886" stroke="black" stroke-width="2"/>
<path d="M415.681 13.3329L427.922 30.6058C425.557 46.8875 423.705 55.9136 427.408 73.3767C425.527 85.2325 425.562 92.7109 427.003 107.1H413.939C416.029 90.7652 416.599 76.9626 414.795 61.039C416.581 48.1551 417.016 33.856 415.681 13.3329Z" fill="#498C00"/>
<path d="M414.795 61.039C416.581 48.1551 417.016 33.856 415.681 13.3329L427.922 30.6058C425.557 46.8875 423.705 55.9136 427.408 73.3767M414.795 61.039C416.599 76.9626 416.029 90.7652 413.939 107.1H427.003C425.562 92.7109 425.527 85.2325 427.408 73.3767M414.795 61.039L427.408 73.3767" stroke="black" stroke-width="2"/>
<path d="M499.481 110.39H482.044C475.836 97.3257 470.334 89.8443 458.794 76.3675C450.783 59.6694 444.696 50.9802 431.516 36.4514C431.461 36.3952 431.418 36.3325 431.388 36.2635L412.294 8.32251L428.901 5.10779C434.493 13.3959 439.112 20.4406 443.22 26.7798C454.82 44.6768 462.353 56.9509 476.231 75.7088C484.749 91.9082 489.918 99.3287 499.481 110.39Z" fill="#498C00"/>
<path d="M431.516 36.4514L412.294 8.32251L428.901 5.10779C450.28 36.7951 457.437 50.3067 476.231 75.7088M431.516 36.4514C429.764 34.6763 440.859 26.2289 443.448 26.8072M431.516 36.4514C444.696 50.9802 450.783 59.6694 458.794 76.3675M476.231 75.7088C484.749 91.9082 489.918 99.3287 499.481 110.39H482.044C475.836 97.3257 470.334 89.8443 458.794 76.3675M476.231 75.7088C468.7 74.4758 464.601 74.0383 458.794 76.3675" stroke="black" stroke-width="2"/>
<path d="M516.489 41.4431C528.479 29.4986 534.523 22.2362 543.754 7.9902C557.728 9.68345 565.564 9.29423 579.538 7.9902C585.288 19.5234 589.411 22.7841 597.431 26.2373L579.538 41.4431C578.155 34.9251 576.928 31.3858 570.166 26.2373C562.759 22.4116 558.122 21.7554 548.014 26.2373C541.676 29.8727 539.542 33.1337 538.642 41.4431C535.2 54.8398 534.964 61.8466 536.086 73.8824L548.014 88.0745C556.664 91.9652 561.515 91.1181 570.166 88.0745C576.431 84.829 578.768 81.7944 579.538 72.8686L570.166 65.7726L594.875 57.6628L604.247 69.6102L606.803 72.8686C595.828 86.1011 590.581 93.9837 583.798 109.363C568.422 106.577 559.922 105.852 545.458 109.363C536.835 94.82 530.843 87.3031 516.489 75.9098C518.52 62.1808 518.478 54.6433 516.489 41.4431Z" fill="#498C00"/>
<path d="M516.489 41.4431C528.479 29.4986 534.523 22.2362 543.754 7.9902M516.489 41.4431C518.478 54.6433 518.52 62.1808 516.489 75.9098M516.489 41.4431H538.642M543.754 7.9902C557.728 9.68345 565.564 9.29423 579.538 7.9902M543.754 7.9902L548.014 26.2373M579.538 7.9902C585.288 19.5234 589.411 22.7841 597.431 26.2373L579.538 41.4431C578.155 34.9251 576.928 31.3858 570.166 26.2373M579.538 7.9902L570.166 26.2373M570.166 26.2373C562.759 22.4116 558.122 21.7554 548.014 26.2373M548.014 26.2373C541.676 29.8727 539.542 33.1337 538.642 41.4431M538.642 41.4431C535.2 54.8398 534.964 61.8466 536.086 73.8824M536.086 73.8824L548.014 88.0745M536.086 73.8824L516.489 75.9098M548.014 88.0745C556.664 91.9652 561.515 91.1181 570.166 88.0745M548.014 88.0745L545.458 109.363M570.166 88.0745C576.431 84.829 578.768 81.7944 579.538 72.8686M570.166 88.0745L583.798 109.363M579.538 72.8686L570.166 65.7726L594.875 57.6628L604.247 69.6102M579.538 72.8686L604.247 69.6102M583.798 109.363C590.581 93.9837 595.828 86.1011 606.803 72.8686L604.247 69.6102M583.798 109.363C568.422 106.577 559.922 105.852 545.458 109.363M545.458 109.363C536.835 94.82 530.843 87.3031 516.489 75.9098" stroke="black" stroke-width="2"/>
<path d="M194.401 181.267C206.392 169.322 212.435 162.06 221.666 147.814C235.641 149.507 243.476 149.118 257.451 147.814C263.2 159.347 267.323 162.608 275.343 166.061L257.451 181.267C256.067 174.749 254.84 171.209 248.079 166.061C240.671 162.235 236.034 161.579 225.926 166.061C219.588 169.696 217.454 172.957 216.554 181.267C213.113 194.663 212.877 201.67 213.998 213.706L225.926 227.898C234.577 231.789 239.428 230.942 248.079 227.898C254.343 224.652 256.68 221.618 257.451 212.692L248.079 205.596L272.787 197.486L282.159 209.434L284.715 212.692C273.74 225.925 268.493 233.807 261.711 249.186C246.334 246.401 237.834 245.675 223.37 249.186C214.748 234.644 208.755 227.127 194.401 215.733C196.432 202.004 196.39 194.467 194.401 181.267Z" fill="#498C00"/>
<path d="M194.401 181.267C206.392 169.322 212.435 162.06 221.666 147.814M194.401 181.267C196.39 194.467 196.432 202.004 194.401 215.733M194.401 181.267H216.554M221.666 147.814C235.641 149.507 243.476 149.118 257.451 147.814M221.666 147.814L225.926 166.061M257.451 147.814C263.2 159.347 267.323 162.608 275.343 166.061L257.451 181.267C256.067 174.749 254.84 171.209 248.079 166.061M257.451 147.814L248.079 166.061M248.079 166.061C240.671 162.235 236.034 161.579 225.926 166.061M225.926 166.061C219.588 169.696 217.454 172.957 216.554 181.267M216.554 181.267C213.113 194.663 212.877 201.67 213.998 213.706M213.998 213.706L225.926 227.898M213.998 213.706L194.401 215.733M225.926 227.898C234.577 231.789 239.428 230.942 248.079 227.898M225.926 227.898L223.37 249.186M248.079 227.898C254.343 224.652 256.68 221.618 257.451 212.692M248.079 227.898L261.711 249.186M257.451 212.692L248.079 205.596L272.787 197.486L282.159 209.434M257.451 212.692L282.159 209.434M261.711 249.186C268.493 233.807 273.74 225.925 284.715 212.692L282.159 209.434M261.711 249.186C246.334 246.401 237.834 245.675 223.37 249.186M223.37 249.186C214.748 234.644 208.755 227.127 194.401 215.733" stroke="black" stroke-width="2"/>
<path d="M335.735 249.186C328.311 241.673 322.142 238.07 309.009 232.291L307.713 227.011C308.467 216.191 307.137 209.966 300.715 198.5H319.147C320.541 209.446 322.724 215.225 329.284 224.899C341.17 228.14 349.711 226.191 349.558 224.899C349.405 223.607 350.008 223.289 350.008 223.289C356.899 215.063 358.103 209.621 356.931 198.5H379.049C372.89 211.702 370.407 219.102 369.833 232.291C360.073 237.561 355.378 241.076 349.558 249.186C344.717 245.536 341.898 244.176 335.735 249.186Z" fill="#498C00"/>
<path d="M369.833 232.291C360.073 237.561 355.378 241.076 349.558 249.186C344.717 245.536 341.898 244.176 335.735 249.186C328.311 241.673 322.142 238.07 309.009 232.291L307.713 227.011M369.833 232.291C370.407 219.102 372.89 211.702 379.049 198.5H356.931C358.103 209.621 356.899 215.063 350.008 223.289M369.833 232.291L350.008 223.289M329.284 224.899C341.17 228.14 349.711 226.191 349.558 224.899C349.405 223.607 350.008 223.289 350.008 223.289M329.284 224.899C322.724 215.225 320.541 209.446 319.147 198.5H300.715C307.137 209.966 308.467 216.191 307.713 227.011M329.284 224.899L307.713 227.011" stroke="black" stroke-width="2"/>
<path d="M308.912 164.709C308.017 179.333 306.281 186.766 300.715 198.5H318.93C320.534 187.056 322.661 181.244 328.948 172.101C338.852 164.297 342.914 165.518 348.984 172.101C356.451 182.129 356.767 187.987 356.27 198.5H378.127L369.02 164.709C359.829 158.792 355.337 155.144 348.984 147.814C341.682 148.971 338.834 148.886 335.323 147.814C326.902 156.548 320.491 159.539 308.912 164.709Z" fill="#498C00"/>
<path d="M308.912 164.709C308.017 179.333 306.281 186.766 300.715 198.5H318.93C320.534 187.056 322.661 181.244 328.948 172.101M308.912 164.709C320.491 159.539 326.902 156.548 335.323 147.814C338.834 148.886 341.682 148.971 348.984 147.814C355.337 155.144 359.829 158.792 369.02 164.709M308.912 164.709C315.392 168.881 319.826 170.449 328.948 172.101M369.02 164.709C372.576 177.905 374.57 185.304 378.127 198.5H356.27C356.767 187.987 356.451 182.129 348.984 172.101M369.02 164.709C359.558 165.385 355.317 167.201 348.984 172.101M348.984 172.101C342.914 165.518 338.852 164.297 328.948 172.101" stroke="black" stroke-width="2"/>
<path d="M395.049 220.157C397.914 192.273 398.699 176.482 395.049 147.353C402.402 149.528 406.647 149.559 414.402 147.353C410.983 175.785 411.57 191.725 414.402 220.157C405.722 216.037 401.676 216.738 395.049 220.157Z" fill="#498C00"/>
<path d="M395.049 248.725C398.523 243.119 398.321 240.104 395.049 234.902C403.048 236.042 407.22 235.873 414.402 234.902C411.214 240.464 411.034 243.681 414.402 249.647C406.7 247.329 402.47 247.239 395.049 248.725Z" fill="#498C00"/>
<path d="M395.049 220.157C397.914 192.273 398.699 176.482 395.049 147.353C402.402 149.528 406.647 149.559 414.402 147.353C410.983 175.785 411.57 191.725 414.402 220.157C405.722 216.037 401.676 216.738 395.049 220.157Z" stroke="black" stroke-width="2"/>
<path d="M395.049 248.725C398.523 243.119 398.321 240.104 395.049 234.902C403.048 236.042 407.22 235.873 414.402 234.902C411.214 240.464 411.034 243.681 414.402 249.647C406.7 247.329 402.47 247.239 395.049 248.725Z" stroke="black" stroke-width="2"/>
</svg>
