<svg width="198" height="203" viewBox="0 0 198 203" fill="none" xmlns="http://www.w3.org/2000/svg">
<path d="M89.3561 77.6574L91.6278 65.8875C80.8102 61.2931 83.2322 46.5309 85.7641 38.3562C88.296 30.1814 96.8281 16.318 106.829 13.2839C116.83 10.2497 146.591 11.0548 156.495 29.6732L157.388 49.3529L153.377 63.2616L155.531 69.9221L152.141 72.5947L147.627 79.3093L143.006 78.176L144.545 82.9334L143.113 86.0238L134.836 92.3787L123.417 87.1377L119.799 82.5272L113.602 88.7351L117.619 110.558L119.856 128.752L121.197 146.296L126.495 145.523L139.108 135.664L150.835 141.856L151.622 153.688L142.949 160.697L128.779 156.345C128.779 156.345 126.472 156.939 122.598 157.88L125.229 171.681L127.229 177.866L76.2412 178.063L75.4534 167.617C58.745 170.266 43.6884 171.379 40.0679 167.689C34.6805 162.198 44.1252 146.764 51.0388 132.741L49.5799 131.915C48.6439 131.862 47.6968 131.816 48.0849 131.069C52.2766 122.994 57.0881 114.693 61.2418 107.242L76.0148 90.9047L89.3561 77.6574Z" fill="#FF9C67"/>
<path d="M116.181 77.9167L119.799 82.5272M119.799 82.5272L123.417 87.1377L134.836 92.3787L143.113 86.0238L144.545 82.9334L143.006 78.176L147.627 79.3093L152.141 72.5947L155.531 69.9221L153.377 63.2616L157.388 49.3529L156.495 29.6732C146.591 11.0548 116.83 10.2497 106.829 13.2839C96.8281 16.318 88.296 30.1814 85.7641 38.3562C83.2322 46.5309 80.8102 61.2931 91.6278 65.8875L89.3561 77.6574L76.0148 90.9047L61.2418 107.242C57.0881 114.693 52.2766 122.994 48.0849 131.069M119.799 82.5272L113.602 88.7351L117.619 110.558L119.856 128.752L121.197 146.296M74.4449 153.122C75.1263 147.156 75.8429 139.797 76.5243 133.83L79.8729 125.391C70.8368 136.944 63.6861 144.246 63.4881 154.99L121.197 146.296M121.197 146.296L126.495 145.523L139.108 135.664L150.835 141.856L151.622 153.688L142.949 160.697L128.779 156.345C128.779 156.345 49.0704 176.864 40.0679 167.689C34.6805 162.198 44.1252 146.764 51.0388 132.741M122.572 157.741L125.229 171.681L127.229 177.866L76.2412 178.063L75.4534 167.617M48.0849 131.069C47.3187 132.545 51.7558 131.287 51.0388 132.741M48.0849 131.069L51.0388 132.741" stroke="black"/>
<path d="M103.408 59.0542L91.9614 65.9084L86.1556 60.9544L83.848 53.8182L84.0588 47.9696L86.3549 38.8193L92.4855 25.2762L100.938 17.2882L107.613 13.5534L122.486 12.4224L134.169 14.4251L146.775 19.2822L156.176 28.8541L156.552 39.7678L130.947 38.5885L121.936 38.3492L114.686 53.3053L111.706 50.5904L111.917 44.7419L106.712 43.2719L100.528 45.2718L100.303 52.7014L103.408 59.0542Z" fill="black" stroke="black"/>
<path d="M70.7239 141.615L48.3666 130.977L61.2288 107.375L75.1252 91.8465L89.1611 78.3746C91.9807 89.9337 111.703 92.0829 113.099 89.0262C114.495 85.9695 117.754 116.423 117.754 116.423L121.122 146.338L74.2621 152.557C75.1534 139.223 76.0264 133.004 78.6178 125.4L74.7692 131.373L70.7239 141.615Z" fill="#498C00"/>
<path d="M76.0911 177.715L75.547 167.906L122.435 158.525L124.532 171.51L127.007 177.541L76.0911 177.715Z" fill="#498C00"/>
<path d="M70.7239 141.615L48.3666 130.977L61.2288 107.375L75.1252 91.8465L89.1611 78.3746C91.9807 89.9337 111.703 92.0829 113.099 89.0262C114.495 85.9695 117.754 116.423 117.754 116.423L121.122 146.338L74.2621 152.557C75.1534 139.223 76.0264 133.004 78.6178 125.4L74.7692 131.373L70.7239 141.615Z" stroke="black"/>
<path d="M76.0911 177.715L75.547 167.906L122.435 158.525L124.532 171.51L127.007 177.541L76.0911 177.715Z" stroke="black"/>
</svg>
