<svg width="891" height="635" viewBox="0 0 891 635" fill="none" xmlns="http://www.w3.org/2000/svg">
<rect x="17" y="14" width="842.034" height="610" fill="#F2E95B"/>
<path d="M21.3627 13.0624L7.91199 21.8024L7.28701 93.2659L11.6195 171.347L5.71975 272.474L9.82147 376.942L8.69651 505.576L5.68414 563.286L2.67177 620.996L49.4799 621.19L56.4264 591.533L50.5376 500.252L58.3013 377.143L52.5279 272.668L60.0993 171.548L54.0951 93.4601L61.4839 13.2289L38.0799 13.1318L21.3627 13.0624Z" fill="#498C00" stroke="black" stroke-width="2"/>
<path d="M10.4355 497.887L30.5058 496.87L50.5376 500.252" stroke="black"/>
<path d="M9.85031 373.643L58.3302 373.844" stroke="black"/>
<path d="M5.62489 92.1595L53.7229 92.3591" stroke="black"/>
<path d="M11.6195 171.347L59.2759 171.544" stroke="black"/>
<path d="M5.71012 273.574L52.5375 271.569" stroke="black"/>
<path d="M4.62231 589.119L56.4264 591.533" stroke="black"/>
<path d="M848.879 15.0624L835.428 23.8024L834.803 95.2659L839.136 173.347L833.236 274.474L837.338 378.942L836.213 507.576L833.2 565.286L830.188 622.996L876.996 623.19L883.942 593.533L878.054 502.252L885.817 379.143L880.044 274.668L887.615 173.548L881.611 95.4601L889 15.2289L865.596 15.1318L848.879 15.0624Z" fill="#498C00" stroke="black" stroke-width="2"/>
<path d="M837.952 499.887L858.022 498.87L878.054 502.252" stroke="black"/>
<path d="M837.366 375.643L885.846 375.844" stroke="black"/>
<path d="M833.141 94.1595L881.239 94.3591" stroke="black"/>
<path d="M839.135 173.347L886.792 173.544" stroke="black"/>
<path d="M833.226 275.574L880.054 273.569" stroke="black"/>
<path d="M832.138 591.119L883.942 593.533" stroke="black"/>
<path d="M1.00002 624.636L13.7694 633.848H117.521L230.849 630.394L377.697 633.848L529.333 630.394H716.086L799.885 632.121L883.684 633.848V601.606L840.587 597L708.105 601.606L529.333 597L377.697 601.606L230.849 597L117.521 601.606L1.00002 597V613.121V624.636Z" fill="#498C00" stroke="black" stroke-width="2"/>
<path d="M704.912 629.242L703.316 615.424L708.105 601.606" stroke="black"/>
<path d="M524.545 630.394V597" stroke="black"/>
<path d="M115.924 635V601.869" stroke="black"/>
<path d="M230.849 630.394V597.567" stroke="black"/>
<path d="M379.293 633.848L376.101 601.606" stroke="black"/>
<path d="M837.395 632.697L840.587 597" stroke="black"/>
<path d="M1.00002 29.6364L13.7694 38.8485H117.521L230.849 35.3939L377.697 38.8485L529.333 35.3939H716.086L799.885 37.1212L883.684 38.8485V6.60606L840.587 2L708.105 6.60606L529.333 2L377.697 6.60606L230.849 2L117.521 6.60606L1.00002 2V18.1212V29.6364Z" fill="#498C00" stroke="black" stroke-width="2"/>
<path d="M704.912 34.2424L703.316 20.4243L708.105 6.60607" stroke="black"/>
<path d="M524.545 35.394V2.00001" stroke="black"/>
<path d="M115.924 40V6.86906" stroke="black"/>
<path d="M230.849 35.394V2.5672" stroke="black"/>
<path d="M379.293 38.8485L376.101 6.60606" stroke="black"/>
<path d="M837.395 37.697L840.587 1.99999" stroke="black"/>
</svg>
